solid OpenSCAD_Model
  facet normal -0.642788 -0.766044 0
    outer loop
      vertex 2.95792 5.29979 -13.299
      vertex 3.17412 5.11838 -10
      vertex 2.95792 5.29979 -10
    endloop
  endfacet
  facet normal -0.642788 -0.766044 -0
    outer loop
      vertex 3.17412 5.11838 -10
      vertex 2.95792 5.29979 -13.299
      vertex 3.17412 5.11838 -13.299
    endloop
  endfacet
  facet normal -0.788011 -0.615661 0
    outer loop
      vertex 3.34787 4.89599 -13.299
      vertex 3.17412 5.11838 -10
      vertex 3.17412 5.11838 -13.299
    endloop
  endfacet
  facet normal -0.788011 -0.615661 0
    outer loop
      vertex 3.17412 5.11838 -10
      vertex 3.34787 4.89599 -13.299
      vertex 3.34787 4.89599 -10
    endloop
  endfacet
  facet normal 0.139175 -0.990268 0
    outer loop
      vertex 1.87642 5.49049 -13.299
      vertex 2.1559 5.52977 -10
      vertex 1.87642 5.49049 -10
    endloop
  endfacet
  facet normal 0.139175 -0.990268 0
    outer loop
      vertex 2.1559 5.52977 -10
      vertex 1.87642 5.49049 -13.299
      vertex 2.1559 5.52977 -13.299
    endloop
  endfacet
  facet normal -0.0697566 -0.997564 0
    outer loop
      vertex 2.1559 5.52977 -13.299
      vertex 2.43743 5.51008 -10
      vertex 2.1559 5.52977 -10
    endloop
  endfacet
  facet normal -0.0697566 -0.997564 -0
    outer loop
      vertex 2.43743 5.51008 -10
      vertex 2.1559 5.52977 -13.299
      vertex 2.43743 5.51008 -13.299
    endloop
  endfacet
  facet normal 0.529917 -0.848049 0
    outer loop
      vertex 1.37187 5.24441 -13.299
      vertex 1.61121 5.39397 -10
      vertex 1.37187 5.24441 -10
    endloop
  endfacet
  facet normal 0.529917 -0.848049 0
    outer loop
      vertex 1.61121 5.39397 -10
      vertex 1.37187 5.24441 -13.299
      vertex 1.61121 5.39397 -13.299
    endloop
  endfacet
  facet normal 0.984808 -0.173648 0
    outer loop
      vertex 0.856299 4.27477 -10
      vertex 0.905307 4.5527 -13.299
      vertex 0.905307 4.5527 -10
    endloop
  endfacet
  facet normal 0.984808 -0.173648 0
    outer loop
      vertex 0.905307 4.5527 -13.299
      vertex 0.856299 4.27477 -10
      vertex 0.856299 4.27477 -13.299
    endloop
  endfacet
  facet normal -0.970296 -0.241921 0
    outer loop
      vertex 3.53987 4.36848 -13.299
      vertex 3.47159 4.64232 -10
      vertex 3.47159 4.64232 -13.299
    endloop
  endfacet
  facet normal -0.970296 -0.241921 0
    outer loop
      vertex 3.47159 4.64232 -10
      vertex 3.53987 4.36848 -13.299
      vertex 3.53987 4.36848 -10
    endloop
  endfacet
  facet normal -0.469472 -0.882947 0
    outer loop
      vertex 2.70873 5.43229 -13.299
      vertex 2.95792 5.29979 -10
      vertex 2.70873 5.43229 -10
    endloop
  endfacet
  facet normal -0.469472 -0.882947 -0
    outer loop
      vertex 2.95792 5.29979 -10
      vertex 2.70873 5.43229 -13.299
      vertex 2.95792 5.29979 -13.299
    endloop
  endfacet
  facet normal 0.34202 -0.939693 0
    outer loop
      vertex 1.61121 5.39397 -13.299
      vertex 1.87642 5.49049 -10
      vertex 1.61121 5.39397 -10
    endloop
  endfacet
  facet normal 0.34202 -0.939693 0
    outer loop
      vertex 1.87642 5.49049 -10
      vertex 1.61121 5.39397 -13.299
      vertex 1.87642 5.49049 -13.299
    endloop
  endfacet
  facet normal -0.275637 -0.961262 0
    outer loop
      vertex 2.43743 5.51008 -13.299
      vertex 2.70873 5.43229 -10
      vertex 2.43743 5.51008 -10
    endloop
  endfacet
  facet normal -0.275637 -0.961262 -0
    outer loop
      vertex 2.70873 5.43229 -10
      vertex 2.43743 5.51008 -13.299
      vertex 2.70873 5.43229 -13.299
    endloop
  endfacet
  facet normal 0.970296 0.241921 0
    outer loop
      vertex 0.934426 3.71887 -10
      vertex 0.866149 3.99271 -13.299
      vertex 0.866149 3.99271 -10
    endloop
  endfacet
  facet normal 0.970296 0.241921 0
    outer loop
      vertex 0.866149 3.99271 -13.299
      vertex 0.934426 3.71887 -10
      vertex 0.934426 3.71887 -13.299
    endloop
  endfacet
  facet normal 0.927184 -0.374605 0
    outer loop
      vertex 0.905307 4.5527 -10
      vertex 1.01103 4.81438 -13.299
      vertex 1.01103 4.81438 -10
    endloop
  endfacet
  facet normal 0.927184 -0.374605 0
    outer loop
      vertex 1.01103 4.81438 -13.299
      vertex 0.905307 4.5527 -10
      vertex 0.905307 4.5527 -13.299
    endloop
  endfacet
  facet normal 0.694659 -0.71934 0
    outer loop
      vertex 1.16885 5.04836 -13.299
      vertex 1.37187 5.24441 -10
      vertex 1.16885 5.04836 -10
    endloop
  endfacet
  facet normal 0.694659 -0.71934 0
    outer loop
      vertex 1.37187 5.24441 -10
      vertex 1.16885 5.04836 -13.299
      vertex 1.37187 5.24441 -13.299
    endloop
  endfacet
  facet normal 0.829037 -0.559194 0
    outer loop
      vertex 1.01103 4.81438 -10
      vertex 1.16885 5.04836 -13.299
      vertex 1.16885 5.04836 -10
    endloop
  endfacet
  facet normal 0.829037 -0.559194 0
    outer loop
      vertex 1.16885 5.04836 -13.299
      vertex 1.01103 4.81438 -10
      vertex 1.01103 4.81438 -13.299
    endloop
  endfacet
  facet normal -0.898793 -0.438372 0
    outer loop
      vertex 3.47159 4.64232 -13.299
      vertex 3.34787 4.89599 -10
      vertex 3.34787 4.89599 -13.299
    endloop
  endfacet
  facet normal -0.898793 -0.438372 0
    outer loop
      vertex 3.34787 4.89599 -10
      vertex 3.47159 4.64232 -13.299
      vertex 3.47159 4.64232 -10
    endloop
  endfacet
  facet normal -0.999391 -0.0349011 0
    outer loop
      vertex 3.54972 4.08642 -13.299
      vertex 3.53987 4.36848 -10
      vertex 3.53987 4.36848 -13.299
    endloop
  endfacet
  facet normal -0.999391 -0.0349011 0
    outer loop
      vertex 3.53987 4.36848 -10
      vertex 3.54972 4.08642 -13.299
      vertex 3.54972 4.08642 -10
    endloop
  endfacet
  facet normal 0.275637 0.961262 -0
    outer loop
      vertex 1.96859 2.8511 -13.299
      vertex 1.69729 2.9289 -10
      vertex 1.96859 2.8511 -10
    endloop
  endfacet
  facet normal 0.275637 0.961262 0
    outer loop
      vertex 1.69729 2.9289 -10
      vertex 1.96859 2.8511 -13.299
      vertex 1.69729 2.9289 -13.299
    endloop
  endfacet
  facet normal 0.642788 0.766044 -0
    outer loop
      vertex 1.4481 3.06139 -13.299
      vertex 1.2319 3.24281 -10
      vertex 1.4481 3.06139 -10
    endloop
  endfacet
  facet normal 0.642788 0.766044 0
    outer loop
      vertex 1.2319 3.24281 -10
      vertex 1.4481 3.06139 -13.299
      vertex 1.2319 3.24281 -13.299
    endloop
  endfacet
  facet normal -0.829037 0.559194 0
    outer loop
      vertex 3.23717 3.31283 -13.299
      vertex 3.39499 3.54681 -10
      vertex 3.39499 3.54681 -13.299
    endloop
  endfacet
  facet normal -0.829037 0.559194 0
    outer loop
      vertex 3.39499 3.54681 -10
      vertex 3.23717 3.31283 -13.299
      vertex 3.23717 3.31283 -10
    endloop
  endfacet
  facet normal 0.999391 0.0349005 0
    outer loop
      vertex 0.866149 3.99271 -10
      vertex 0.856299 4.27477 -13.299
      vertex 0.856299 4.27477 -10
    endloop
  endfacet
  facet normal 0.999391 0.0349005 0
    outer loop
      vertex 0.856299 4.27477 -13.299
      vertex 0.866149 3.99271 -10
      vertex 0.866149 3.99271 -13.299
    endloop
  endfacet
  facet normal -0.984808 0.173648 0
    outer loop
      vertex 3.50071 3.80848 -13.299
      vertex 3.54972 4.08642 -10
      vertex 3.54972 4.08642 -13.299
    endloop
  endfacet
  facet normal -0.984808 0.173648 0
    outer loop
      vertex 3.54972 4.08642 -10
      vertex 3.50071 3.80848 -13.299
      vertex 3.50071 3.80848 -10
    endloop
  endfacet
  facet normal -0.34202 0.939693 0
    outer loop
      vertex 2.79481 2.96722 -13.299
      vertex 2.5296 2.8707 -10
      vertex 2.79481 2.96722 -10
    endloop
  endfacet
  facet normal -0.34202 0.939693 0
    outer loop
      vertex 2.5296 2.8707 -10
      vertex 2.79481 2.96722 -13.299
      vertex 2.5296 2.8707 -13.299
    endloop
  endfacet
  facet normal 0.898794 0.438372 0
    outer loop
      vertex 1.05815 3.4652 -10
      vertex 0.934426 3.71887 -13.299
      vertex 0.934426 3.71887 -10
    endloop
  endfacet
  facet normal 0.898794 0.438372 0
    outer loop
      vertex 0.934426 3.71887 -13.299
      vertex 1.05815 3.4652 -10
      vertex 1.05815 3.4652 -13.299
    endloop
  endfacet
  facet normal 0.469472 0.882947 -0
    outer loop
      vertex 1.69729 2.9289 -13.299
      vertex 1.4481 3.06139 -10
      vertex 1.69729 2.9289 -10
    endloop
  endfacet
  facet normal 0.469472 0.882947 0
    outer loop
      vertex 1.4481 3.06139 -10
      vertex 1.69729 2.9289 -13.299
      vertex 1.4481 3.06139 -13.299
    endloop
  endfacet
  facet normal -0.529917 0.848049 0
    outer loop
      vertex 3.03415 3.11678 -13.299
      vertex 2.79481 2.96722 -10
      vertex 3.03415 3.11678 -10
    endloop
  endfacet
  facet normal -0.529917 0.848049 0
    outer loop
      vertex 2.79481 2.96722 -10
      vertex 3.03415 3.11678 -13.299
      vertex 2.79481 2.96722 -13.299
    endloop
  endfacet
  facet normal -0.694659 0.71934 0
    outer loop
      vertex 3.23717 3.31283 -13.299
      vertex 3.03415 3.11678 -10
      vertex 3.23717 3.31283 -10
    endloop
  endfacet
  facet normal -0.694659 0.71934 0
    outer loop
      vertex 3.03415 3.11678 -10
      vertex 3.23717 3.31283 -13.299
      vertex 3.03415 3.11678 -13.299
    endloop
  endfacet
  facet normal -0.139175 0.990268 0
    outer loop
      vertex 2.5296 2.8707 -13.299
      vertex 2.25012 2.83142 -10
      vertex 2.5296 2.8707 -10
    endloop
  endfacet
  facet normal -0.139175 0.990268 0
    outer loop
      vertex 2.25012 2.83142 -10
      vertex 2.5296 2.8707 -13.299
      vertex 2.25012 2.83142 -13.299
    endloop
  endfacet
  facet normal 0.788011 0.615661 0
    outer loop
      vertex 1.2319 3.24281 -10
      vertex 1.05815 3.4652 -13.299
      vertex 1.05815 3.4652 -10
    endloop
  endfacet
  facet normal 0.788011 0.615661 0
    outer loop
      vertex 1.05815 3.4652 -13.299
      vertex 1.2319 3.24281 -10
      vertex 1.2319 3.24281 -13.299
    endloop
  endfacet
  facet normal -0.927184 0.374606 0
    outer loop
      vertex 3.39499 3.54681 -13.299
      vertex 3.50071 3.80848 -10
      vertex 3.50071 3.80848 -13.299
    endloop
  endfacet
  facet normal -0.927184 0.374606 0
    outer loop
      vertex 3.50071 3.80848 -10
      vertex 3.39499 3.54681 -13.299
      vertex 3.39499 3.54681 -10
    endloop
  endfacet
  facet normal 0.0697566 0.997564 -0
    outer loop
      vertex 2.25012 2.83142 -13.299
      vertex 1.96859 2.8511 -10
      vertex 2.25012 2.83142 -10
    endloop
  endfacet
  facet normal 0.0697566 0.997564 0
    outer loop
      vertex 1.96859 2.8511 -10
      vertex 2.25012 2.83142 -13.299
      vertex 1.96859 2.8511 -13.299
    endloop
  endfacet
  facet normal -0.791973 -0.386271 -0.472836
    outer loop
      vertex 4.73967 5.10386 -15.8
      vertex 3.34787 4.89599 -13.299
      vertex 4.49228 5.61109 -15.8
    endloop
  endfacet
  facet normal -0.791972 -0.386272 -0.472836
    outer loop
      vertex 3.34787 4.89599 -13.299
      vertex 4.73967 5.10386 -15.8
      vertex 3.47159 4.64232 -13.299
    endloop
  endfacet
  facet normal -0.816988 0.330084 -0.472836
    outer loop
      vertex 4.58649 2.91327 -15.8
      vertex 3.39499 3.54681 -13.299
      vertex 4.79785 3.43642 -15.8
    endloop
  endfacet
  facet normal -0.854976 -0.213169 -0.472836
    outer loop
      vertex 4.8762 4.55629 -15.8
      vertex 3.47159 4.64232 -13.299
      vertex 4.73967 5.10386 -15.8
    endloop
  endfacet
  facet normal -0.854977 -0.213168 -0.472836
    outer loop
      vertex 3.47159 4.64232 -13.299
      vertex 4.8762 4.55629 -15.8
      vertex 3.53987 4.36848 -13.299
    endloop
  endfacet
  facet normal 0.791972 0.386272 -0.472836
    outer loop
      vertex 1.05815 3.4652 -13.299
      vertex -0.333652 3.25732 -15.8
      vertex 0.934426 3.71887 -13.299
    endloop
  endfacet
  facet normal 0.791972 0.386271 -0.472836
    outer loop
      vertex -0.333652 3.25732 -15.8
      vertex 1.05815 3.4652 -13.299
      vertex -0.0862614 2.7501 -15.8
    endloop
  endfacet
  facet normal 0.301372 -0.82801 -0.472836
    outer loop
      vertex 1.54995 6.79987 -15.8
      vertex 1.61121 5.39397 -13.299
      vertex 1.01965 6.60685 -15.8
    endloop
  endfacet
  facet normal 0.301371 -0.82801 -0.472836
    outer loop
      vertex 1.61121 5.39397 -13.299
      vertex 1.54995 6.79987 -15.8
      vertex 1.87642 5.49049 -13.299
    endloop
  endfacet
  facet normal -0.566393 -0.675 -0.472836
    outer loop
      vertex 4.14484 6.0558 -15.8
      vertex 3.17412 5.11838 -13.299
      vertex 3.71262 6.41848 -15.8
    endloop
  endfacet
  facet normal -0.301371 0.82801 -0.472836
    outer loop
      vertex 2.85607 1.56132 -15.8
      vertex 2.79481 2.96722 -13.299
      vertex 3.38638 1.75434 -15.8
    endloop
  endfacet
  facet normal -0.301371 0.82801 -0.472836
    outer loop
      vertex 2.79481 2.96722 -13.299
      vertex 2.85607 1.56132 -15.8
      vertex 2.5296 2.8707 -13.299
    endloop
  endfacet
  facet normal 0.816988 -0.330085 -0.472836
    outer loop
      vertex 1.01103 4.81438 -13.299
      vertex -0.391835 4.92477 -15.8
      vertex -0.180471 5.44791 -15.8
    endloop
  endfacet
  facet normal -0.413675 -0.77801 -0.472836
    outer loop
      vertex 3.71243 6.4186 -15.8
      vertex 2.70873 5.43229 -13.299
      vertex 3.21425 6.68349 -15.8
    endloop
  endfacet
  facet normal -0.0614661 -0.879004 -0.472836
    outer loop
      vertex 2.1088 6.87841 -15.8
      vertex 2.43743 5.51008 -13.299
      vertex 2.1559 5.52977 -13.299
    endloop
  endfacet
  facet normal -0.0614657 -0.879004 -0.472836
    outer loop
      vertex 2.43743 5.51008 -13.299
      vertex 2.1088 6.87841 -15.8
      vertex 2.67177 6.83904 -15.8
    endloop
  endfacet
  facet normal -0.880614 -0.0307513 -0.472836
    outer loop
      vertex 4.89589 3.99229 -15.8
      vertex 3.54972 4.08642 -13.299
      vertex 4.8762 4.55617 -15.8
    endloop
  endfacet
  facet normal -0.867764 0.153009 -0.472836
    outer loop
      vertex 4.79792 3.43663 -15.8
      vertex 3.54972 4.08642 -13.299
      vertex 4.89589 3.99229 -15.8
    endloop
  endfacet
  facet normal 0.566393 0.675 -0.472836
    outer loop
      vertex 0.693405 1.94271 -15.8
      vertex 0.261182 2.30539 -15.8
      vertex 1.2319 3.24281 -13.299
    endloop
  endfacet
  facet normal 0.880614 0.0307511 -0.472836
    outer loop
      vertex -0.470182 3.80502 -15.8
      vertex -0.489873 4.3689 -15.8
      vertex 0.856299 4.27477 -13.299
    endloop
  endfacet
  facet normal 0.854977 0.213169 -0.472836
    outer loop
      vertex 0.934426 3.71887 -13.299
      vertex -0.470178 3.8049 -15.8
      vertex 0.866149 3.99271 -13.299
    endloop
  endfacet
  facet normal 0.854976 0.213169 -0.472836
    outer loop
      vertex -0.470178 3.8049 -15.8
      vertex 0.934426 3.71887 -13.299
      vertex -0.333652 3.25732 -15.8
    endloop
  endfacet
  facet normal 0.867764 -0.15301 -0.472836
    outer loop
      vertex 0.856299 4.27477 -13.299
      vertex -0.489873 4.3689 -15.8
      vertex -0.391896 4.92456 -15.8
    endloop
  endfacet
  facet normal 0.122633 -0.872575 -0.472836
    outer loop
      vertex 2.1559 5.52977 -13.299
      vertex 1.55006 6.79988 -15.8
      vertex 2.1088 6.87841 -15.8
    endloop
  endfacet
  facet normal -0.242878 -0.847016 -0.472836
    outer loop
      vertex 2.70873 5.43229 -13.299
      vertex 2.67187 6.83901 -15.8
      vertex 3.21425 6.68349 -15.8
    endloop
  endfacet
  facet normal -0.566393 -0.675 -0.472836
    outer loop
      vertex 3.71253 6.41855 -15.8
      vertex 3.17412 5.11838 -13.299
      vertex 2.95792 5.29979 -13.299
    endloop
  endfacet
  facet normal -0.565706 -0.675498 -0.472947
    outer loop
      vertex 3.17412 5.11838 -13.299
      vertex 3.71253 6.41855 -15.8
      vertex 3.71262 6.41848 -15.8
    endloop
  endfacet
  facet normal -0.413675 -0.778009 -0.472836
    outer loop
      vertex 3.71243 6.4186 -15.8
      vertex 2.95792 5.29979 -13.299
      vertex 2.70873 5.43229 -13.299
    endloop
  endfacet
  facet normal -0.41331 -0.778215 -0.472818
    outer loop
      vertex 2.95792 5.29979 -13.299
      vertex 3.71243 6.4186 -15.8
      vertex 3.71253 6.41855 -15.8
    endloop
  endfacet
  facet normal -0.694356 -0.542491 -0.472836
    outer loop
      vertex 4.49221 5.61118 -15.8
      vertex 3.17412 5.11838 -13.299
      vertex 4.14484 6.0558 -15.8
    endloop
  endfacet
  facet normal -0.693234 -0.544152 -0.472573
    outer loop
      vertex 4.49228 5.61109 -15.8
      vertex 3.17412 5.11838 -13.299
      vertex 4.49221 5.61118 -15.8
    endloop
  endfacet
  facet normal -0.694356 -0.54249 -0.472836
    outer loop
      vertex 3.17412 5.11838 -13.299
      vertex 4.49228 5.61109 -15.8
      vertex 3.34787 4.89599 -13.299
    endloop
  endfacet
  facet normal -0.880666 -0.0298531 -0.472797
    outer loop
      vertex 4.8762 4.55617 -15.8
      vertex 3.53987 4.36848 -13.299
      vertex 4.8762 4.55629 -15.8
    endloop
  endfacet
  facet normal -0.880613 -0.0307531 -0.472836
    outer loop
      vertex 3.53987 4.36848 -13.299
      vertex 4.8762 4.55617 -15.8
      vertex 3.54972 4.08642 -13.299
    endloop
  endfacet
  facet normal -0.867764 0.15301 -0.472836
    outer loop
      vertex 4.79792 3.43663 -15.8
      vertex 3.50071 3.80848 -13.299
      vertex 3.54972 4.08642 -13.299
    endloop
  endfacet
  facet normal -0.867824 0.152707 -0.472823
    outer loop
      vertex 3.50071 3.80848 -13.299
      vertex 4.79792 3.43663 -15.8
      vertex 4.7979 3.43652 -15.8
    endloop
  endfacet
  facet normal -0.816989 0.330084 -0.472836
    outer loop
      vertex 4.7979 3.43652 -15.8
      vertex 3.39499 3.54681 -13.299
      vertex 3.50071 3.80848 -13.299
    endloop
  endfacet
  facet normal -0.816651 0.331125 -0.472693
    outer loop
      vertex 3.39499 3.54681 -13.299
      vertex 4.7979 3.43652 -15.8
      vertex 4.79785 3.43642 -15.8
    endloop
  endfacet
  facet normal -0.612098 0.633847 -0.472836
    outer loop
      vertex 3.86496 2.05339 -15.8
      vertex 3.23717 3.31283 -13.299
      vertex 4.27092 2.44542 -15.8
    endloop
  endfacet
  facet normal -0.612099 0.633846 -0.472836
    outer loop
      vertex 3.23717 3.31283 -13.299
      vertex 3.86496 2.05339 -15.8
      vertex 3.03415 3.11678 -13.299
    endloop
  endfacet
  facet normal -0.122633 0.872575 -0.472836
    outer loop
      vertex 2.29722 1.48278 -15.8
      vertex 2.25012 2.83142 -13.299
      vertex 2.85596 1.56131 -15.8
    endloop
  endfacet
  facet normal 0.566393 0.675 -0.472836
    outer loop
      vertex 0.693492 1.94264 -15.8
      vertex 1.2319 3.24281 -13.299
      vertex 1.4481 3.06139 -13.299
    endloop
  endfacet
  facet normal 0.565949 0.675322 -0.472908
    outer loop
      vertex 1.2319 3.24281 -13.299
      vertex 0.693492 1.94264 -15.8
      vertex 0.693405 1.94271 -15.8
    endloop
  endfacet
  facet normal 0.612099 -0.633846 -0.472836
    outer loop
      vertex 0.541057 6.3078 -15.8
      vertex 1.16885 5.04836 -13.299
      vertex 0.135104 5.91577 -15.8
    endloop
  endfacet
  facet normal 0.612099 -0.633846 -0.472836
    outer loop
      vertex 1.16885 5.04836 -13.299
      vertex 0.541057 6.3078 -15.8
      vertex 1.37187 5.24441 -13.299
    endloop
  endfacet
  facet normal 0.880613 0.0307526 -0.472836
    outer loop
      vertex 0.866149 3.99271 -13.299
      vertex -0.470182 3.80502 -15.8
      vertex 0.856299 4.27477 -13.299
    endloop
  endfacet
  facet normal 0.880615 0.0307191 -0.472835
    outer loop
      vertex -0.470182 3.80502 -15.8
      vertex 0.866149 3.99271 -13.299
      vertex -0.470178 3.8049 -15.8
    endloop
  endfacet
  facet normal 0.867734 -0.153157 -0.472843
    outer loop
      vertex 0.905307 4.5527 -13.299
      vertex -0.391896 4.92456 -15.8
      vertex -0.391877 4.92467 -15.8
    endloop
  endfacet
  facet normal 0.867764 -0.15301 -0.472836
    outer loop
      vertex -0.391896 4.92456 -15.8
      vertex 0.905307 4.5527 -13.299
      vertex 0.856299 4.27477 -13.299
    endloop
  endfacet
  facet normal 0.817266 -0.329228 -0.472954
    outer loop
      vertex 1.01103 4.81438 -13.299
      vertex -0.391877 4.92467 -15.8
      vertex -0.391835 4.92477 -15.8
    endloop
  endfacet
  facet normal 0.816989 -0.330084 -0.472836
    outer loop
      vertex -0.391877 4.92467 -15.8
      vertex 1.01103 4.81438 -13.299
      vertex 0.905307 4.5527 -13.299
    endloop
  endfacet
  facet normal -0.242877 -0.847016 -0.472836
    outer loop
      vertex 2.67177 6.83904 -15.8
      vertex 2.70873 5.43229 -13.299
      vertex 2.43743 5.51008 -13.299
    endloop
  endfacet
  facet normal -0.245562 -0.846444 -0.472475
    outer loop
      vertex 2.70873 5.43229 -13.299
      vertex 2.67177 6.83904 -15.8
      vertex 2.67187 6.83901 -15.8
    endloop
  endfacet
  facet normal 0.122789 -0.872549 -0.472843
    outer loop
      vertex 1.55006 6.79988 -15.8
      vertex 1.87642 5.49049 -13.299
      vertex 1.54995 6.79987 -15.8
    endloop
  endfacet
  facet normal 0.122634 -0.872575 -0.472836
    outer loop
      vertex 1.87642 5.49049 -13.299
      vertex 1.55006 6.79988 -15.8
      vertex 2.1559 5.52977 -13.299
    endloop
  endfacet
  facet normal -0.730506 0.492734 -0.472836
    outer loop
      vertex 4.27098 2.44551 -15.8
      vertex 3.23717 3.31283 -13.299
      vertex 3.39499 3.54681 -13.299
    endloop
  endfacet
  facet normal -0.729688 0.493886 -0.472898
    outer loop
      vertex 3.23717 3.31283 -13.299
      vertex 4.27098 2.44551 -15.8
      vertex 4.27092 2.44542 -15.8
    endloop
  endfacet
  facet normal -0.730507 0.492733 -0.472836
    outer loop
      vertex 4.27098 2.44551 -15.8
      vertex 3.39499 3.54681 -13.299
      vertex 4.58649 2.91327 -15.8
    endloop
  endfacet
  facet normal -0.466938 0.747258 -0.472836
    outer loop
      vertex 3.38647 1.7544 -15.8
      vertex 3.03415 3.11678 -13.299
      vertex 3.86496 2.05339 -15.8
    endloop
  endfacet
  facet normal 0.0614661 0.879004 -0.472836
    outer loop
      vertex 2.29722 1.48278 -15.8
      vertex 1.96859 2.8511 -13.299
      vertex 2.25012 2.83142 -13.299
    endloop
  endfacet
  facet normal 0.0614659 0.879004 -0.472836
    outer loop
      vertex 1.96859 2.8511 -13.299
      vertex 2.29722 1.48278 -15.8
      vertex 1.73425 1.52215 -15.8
    endloop
  endfacet
  facet normal -0.12188 0.872699 -0.472803
    outer loop
      vertex 2.85596 1.56131 -15.8
      vertex 2.5296 2.8707 -13.299
      vertex 2.85607 1.56132 -15.8
    endloop
  endfacet
  facet normal -0.122634 0.872575 -0.472836
    outer loop
      vertex 2.5296 2.8707 -13.299
      vertex 2.85596 1.56131 -15.8
      vertex 2.25012 2.83142 -13.299
    endloop
  endfacet
  facet normal 0.242877 0.847016 -0.472836
    outer loop
      vertex 1.73425 1.52215 -15.8
      vertex 1.69729 2.9289 -13.299
      vertex 1.96859 2.8511 -13.299
    endloop
  endfacet
  facet normal 0.242932 0.847005 -0.472829
    outer loop
      vertex 1.69729 2.9289 -13.299
      vertex 1.73425 1.52215 -15.8
      vertex 1.73415 1.52218 -15.8
    endloop
  endfacet
  facet normal 0.242878 0.847016 -0.472836
    outer loop
      vertex 1.73415 1.52218 -15.8
      vertex 1.19178 1.6777 -15.8
      vertex 1.69729 2.9289 -13.299
    endloop
  endfacet
  facet normal 0.413676 0.778009 -0.472836
    outer loop
      vertex 0.693591 1.94259 -15.8
      vertex 1.4481 3.06139 -13.299
      vertex 1.69729 2.9289 -13.299
    endloop
  endfacet
  facet normal 0.414217 0.777704 -0.472863
    outer loop
      vertex 1.4481 3.06139 -13.299
      vertex 0.693591 1.94259 -15.8
      vertex 0.693492 1.94264 -15.8
    endloop
  endfacet
  facet normal 0.413675 0.77801 -0.472836
    outer loop
      vertex 1.19178 1.6777 -15.8
      vertex 0.693591 1.94259 -15.8
      vertex 1.69729 2.9289 -13.299
    endloop
  endfacet
  facet normal 0.694356 0.542491 -0.472836
    outer loop
      vertex 0.261182 2.30539 -15.8
      vertex -0.0861919 2.75001 -15.8
      vertex 1.2319 3.24281 -13.299
    endloop
  endfacet
  facet normal 0.730312 -0.493007 -0.472851
    outer loop
      vertex 1.16885 5.04836 -13.299
      vertex 0.135041 5.91568 -15.8
      vertex 0.135104 5.91577 -15.8
    endloop
  endfacet
  facet normal 0.730506 -0.492734 -0.472836
    outer loop
      vertex 0.135041 5.91568 -15.8
      vertex 1.16885 5.04836 -13.299
      vertex 1.01103 4.81438 -13.299
    endloop
  endfacet
  facet normal 0.730507 -0.492733 -0.472836
    outer loop
      vertex 1.01103 4.81438 -13.299
      vertex -0.180471 5.44791 -15.8
      vertex 0.135041 5.91568 -15.8
    endloop
  endfacet
  facet normal 0.466938 -0.747258 -0.472836
    outer loop
      vertex 1.37187 5.24441 -13.299
      vertex 0.541057 6.3078 -15.8
      vertex 1.01955 6.60679 -15.8
    endloop
  endfacet
  facet normal -0.466837 0.747312 -0.472851
    outer loop
      vertex 3.38638 1.75434 -15.8
      vertex 3.03415 3.11678 -13.299
      vertex 3.38647 1.7544 -15.8
    endloop
  endfacet
  facet normal -0.466937 0.747259 -0.472836
    outer loop
      vertex 3.03415 3.11678 -13.299
      vertex 3.38638 1.75434 -15.8
      vertex 2.79481 2.96722 -13.299
    endloop
  endfacet
  facet normal 0.694356 0.54249 -0.472836
    outer loop
      vertex 1.2319 3.24281 -13.299
      vertex -0.0862614 2.7501 -15.8
      vertex 1.05815 3.4652 -13.299
    endloop
  endfacet
  facet normal 0.693723 0.543428 -0.472688
    outer loop
      vertex -0.0862614 2.7501 -15.8
      vertex 1.2319 3.24281 -13.299
      vertex -0.0861919 2.75001 -15.8
    endloop
  endfacet
  facet normal 0.4657 -0.747914 -0.473019
    outer loop
      vertex 1.01965 6.60685 -15.8
      vertex 1.37187 5.24441 -13.299
      vertex 1.01955 6.60679 -15.8
    endloop
  endfacet
  facet normal 0.466937 -0.747259 -0.472836
    outer loop
      vertex 1.37187 5.24441 -13.299
      vertex 1.01965 6.60685 -15.8
      vertex 1.61121 5.39397 -13.299
    endloop
  endfacet
  facet normal -0.642788 -0.766044 0
    outer loop
      vertex 26.4502 13.8503 -13.299
      vertex 26.6664 13.6689 -10
      vertex 26.4502 13.8503 -10
    endloop
  endfacet
  facet normal -0.642788 -0.766044 -0
    outer loop
      vertex 26.6664 13.6689 -10
      vertex 26.4502 13.8503 -13.299
      vertex 26.6664 13.6689 -13.299
    endloop
  endfacet
  facet normal -0.788008 -0.615664 0
    outer loop
      vertex 26.8402 13.4465 -13.299
      vertex 26.6664 13.6689 -10
      vertex 26.6664 13.6689 -13.299
    endloop
  endfacet
  facet normal -0.788008 -0.615664 0
    outer loop
      vertex 26.6664 13.6689 -10
      vertex 26.8402 13.4465 -13.299
      vertex 26.8402 13.4465 -10
    endloop
  endfacet
  facet normal 0.139175 -0.990268 0
    outer loop
      vertex 25.3687 14.041 -13.299
      vertex 25.6482 14.0803 -10
      vertex 25.3687 14.041 -10
    endloop
  endfacet
  facet normal 0.139175 -0.990268 0
    outer loop
      vertex 25.6482 14.0803 -10
      vertex 25.3687 14.041 -13.299
      vertex 25.6482 14.0803 -13.299
    endloop
  endfacet
  facet normal -0.0697581 -0.997564 0
    outer loop
      vertex 25.6482 14.0803 -13.299
      vertex 25.9298 14.0606 -10
      vertex 25.6482 14.0803 -10
    endloop
  endfacet
  facet normal -0.0697581 -0.997564 -0
    outer loop
      vertex 25.9298 14.0606 -10
      vertex 25.6482 14.0803 -13.299
      vertex 25.9298 14.0606 -13.299
    endloop
  endfacet
  facet normal 0.529916 -0.84805 0
    outer loop
      vertex 24.8642 13.7949 -13.299
      vertex 25.1035 13.9445 -10
      vertex 24.8642 13.7949 -10
    endloop
  endfacet
  facet normal 0.529916 -0.84805 0
    outer loop
      vertex 25.1035 13.9445 -10
      vertex 24.8642 13.7949 -13.299
      vertex 25.1035 13.9445 -13.299
    endloop
  endfacet
  facet normal 0.984808 -0.173646 0
    outer loop
      vertex 24.3486 12.8253 -10
      vertex 24.3976 13.1032 -13.299
      vertex 24.3976 13.1032 -10
    endloop
  endfacet
  facet normal 0.984808 -0.173646 0
    outer loop
      vertex 24.3976 13.1032 -13.299
      vertex 24.3486 12.8253 -10
      vertex 24.3486 12.8253 -13.299
    endloop
  endfacet
  facet normal -0.970297 -0.241917 0
    outer loop
      vertex 27.0322 12.919 -13.299
      vertex 26.9639 13.1928 -10
      vertex 26.9639 13.1928 -13.299
    endloop
  endfacet
  facet normal -0.970297 -0.241917 0
    outer loop
      vertex 26.9639 13.1928 -10
      vertex 27.0322 12.919 -13.299
      vertex 27.0322 12.919 -10
    endloop
  endfacet
  facet normal -0.469473 -0.882947 0
    outer loop
      vertex 26.201 13.9828 -13.299
      vertex 26.4502 13.8503 -10
      vertex 26.201 13.9828 -10
    endloop
  endfacet
  facet normal -0.469473 -0.882947 -0
    outer loop
      vertex 26.4502 13.8503 -10
      vertex 26.201 13.9828 -13.299
      vertex 26.4502 13.8503 -13.299
    endloop
  endfacet
  facet normal 0.342021 -0.939692 0
    outer loop
      vertex 25.1035 13.9445 -13.299
      vertex 25.3687 14.041 -10
      vertex 25.1035 13.9445 -10
    endloop
  endfacet
  facet normal 0.342021 -0.939692 0
    outer loop
      vertex 25.3687 14.041 -10
      vertex 25.1035 13.9445 -13.299
      vertex 25.3687 14.041 -13.299
    endloop
  endfacet
  facet normal -0.275637 -0.961262 0
    outer loop
      vertex 25.9298 14.0606 -13.299
      vertex 26.201 13.9828 -10
      vertex 25.9298 14.0606 -10
    endloop
  endfacet
  facet normal -0.275637 -0.961262 -0
    outer loop
      vertex 26.201 13.9828 -10
      vertex 25.9298 14.0606 -13.299
      vertex 26.201 13.9828 -13.299
    endloop
  endfacet
  facet normal 0.970295 0.241924 0
    outer loop
      vertex 24.4267 12.2694 -10
      vertex 24.3585 12.5432 -13.299
      vertex 24.3585 12.5432 -10
    endloop
  endfacet
  facet normal 0.970295 0.241924 0
    outer loop
      vertex 24.3585 12.5432 -13.299
      vertex 24.4267 12.2694 -10
      vertex 24.4267 12.2694 -13.299
    endloop
  endfacet
  facet normal 0.927184 -0.374607 0
    outer loop
      vertex 24.3976 13.1032 -10
      vertex 24.5033 13.3649 -13.299
      vertex 24.5033 13.3649 -10
    endloop
  endfacet
  facet normal 0.927184 -0.374607 0
    outer loop
      vertex 24.5033 13.3649 -13.299
      vertex 24.3976 13.1032 -10
      vertex 24.3976 13.1032 -13.299
    endloop
  endfacet
  facet normal 0.694659 -0.71934 0
    outer loop
      vertex 24.6612 13.5989 -13.299
      vertex 24.8642 13.7949 -10
      vertex 24.6612 13.5989 -10
    endloop
  endfacet
  facet normal 0.694659 -0.71934 0
    outer loop
      vertex 24.8642 13.7949 -10
      vertex 24.6612 13.5989 -13.299
      vertex 24.8642 13.7949 -13.299
    endloop
  endfacet
  facet normal 0.829037 -0.559193 0
    outer loop
      vertex 24.5033 13.3649 -10
      vertex 24.6612 13.5989 -13.299
      vertex 24.6612 13.5989 -10
    endloop
  endfacet
  facet normal 0.829037 -0.559193 0
    outer loop
      vertex 24.6612 13.5989 -13.299
      vertex 24.5033 13.3649 -10
      vertex 24.5033 13.3649 -13.299
    endloop
  endfacet
  facet normal -0.898793 -0.438372 0
    outer loop
      vertex 26.9639 13.1928 -13.299
      vertex 26.8402 13.4465 -10
      vertex 26.8402 13.4465 -13.299
    endloop
  endfacet
  facet normal -0.898793 -0.438372 0
    outer loop
      vertex 26.8402 13.4465 -10
      vertex 26.9639 13.1928 -13.299
      vertex 26.9639 13.1928 -10
    endloop
  endfacet
  facet normal -0.829037 0.559193 0
    outer loop
      vertex 26.7295 11.8633 -13.299
      vertex 26.8873 12.0973 -10
      vertex 26.8873 12.0973 -13.299
    endloop
  endfacet
  facet normal -0.829037 0.559193 0
    outer loop
      vertex 26.8873 12.0973 -10
      vertex 26.7295 11.8633 -13.299
      vertex 26.7295 11.8633 -10
    endloop
  endfacet
  facet normal 0.999391 0.0348994 0
    outer loop
      vertex 24.3585 12.5432 -10
      vertex 24.3486 12.8253 -13.299
      vertex 24.3486 12.8253 -10
    endloop
  endfacet
  facet normal 0.999391 0.0348994 0
    outer loop
      vertex 24.3486 12.8253 -13.299
      vertex 24.3585 12.5432 -10
      vertex 24.3585 12.5432 -13.299
    endloop
  endfacet
  facet normal -0.999391 -0.0348994 0
    outer loop
      vertex 27.042 12.6369 -13.299
      vertex 27.0322 12.919 -10
      vertex 27.0322 12.919 -13.299
    endloop
  endfacet
  facet normal -0.999391 -0.0348994 0
    outer loop
      vertex 27.0322 12.919 -10
      vertex 27.042 12.6369 -13.299
      vertex 27.042 12.6369 -10
    endloop
  endfacet
  facet normal -0.984808 0.173646 0
    outer loop
      vertex 26.993 12.359 -13.299
      vertex 27.042 12.6369 -10
      vertex 27.042 12.6369 -13.299
    endloop
  endfacet
  facet normal -0.984808 0.173646 0
    outer loop
      vertex 27.042 12.6369 -10
      vertex 26.993 12.359 -13.299
      vertex 26.993 12.359 -10
    endloop
  endfacet
  facet normal -0.139175 0.990268 0
    outer loop
      vertex 26.0219 11.4212 -13.299
      vertex 25.7424 11.3819 -10
      vertex 26.0219 11.4212 -10
    endloop
  endfacet
  facet normal -0.139175 0.990268 0
    outer loop
      vertex 25.7424 11.3819 -10
      vertex 26.0219 11.4212 -13.299
      vertex 25.7424 11.3819 -13.299
    endloop
  endfacet
  facet normal 0.898794 0.438371 0
    outer loop
      vertex 24.5505 12.0157 -10
      vertex 24.4267 12.2694 -13.299
      vertex 24.4267 12.2694 -10
    endloop
  endfacet
  facet normal 0.898794 0.438371 0
    outer loop
      vertex 24.4267 12.2694 -13.299
      vertex 24.5505 12.0157 -10
      vertex 24.5505 12.0157 -13.299
    endloop
  endfacet
  facet normal -0.529919 0.848048 0
    outer loop
      vertex 26.5265 11.6673 -13.299
      vertex 26.2871 11.5177 -10
      vertex 26.5265 11.6673 -10
    endloop
  endfacet
  facet normal -0.529919 0.848048 0
    outer loop
      vertex 26.2871 11.5177 -10
      vertex 26.5265 11.6673 -13.299
      vertex 26.2871 11.5177 -13.299
    endloop
  endfacet
  facet normal -0.694659 0.71934 0
    outer loop
      vertex 26.7295 11.8633 -13.299
      vertex 26.5265 11.6673 -10
      vertex 26.7295 11.8633 -10
    endloop
  endfacet
  facet normal -0.694659 0.71934 0
    outer loop
      vertex 26.5265 11.6673 -10
      vertex 26.7295 11.8633 -13.299
      vertex 26.5265 11.6673 -13.299
    endloop
  endfacet
  facet normal -0.927183 0.374608 0
    outer loop
      vertex 26.8873 12.0973 -13.299
      vertex 26.993 12.359 -10
      vertex 26.993 12.359 -13.299
    endloop
  endfacet
  facet normal -0.927183 0.374608 0
    outer loop
      vertex 26.993 12.359 -10
      vertex 26.8873 12.0973 -13.299
      vertex 26.8873 12.0973 -10
    endloop
  endfacet
  facet normal 0.275635 0.961262 -0
    outer loop
      vertex 25.4609 11.4016 -13.299
      vertex 25.1896 11.4794 -10
      vertex 25.4609 11.4016 -10
    endloop
  endfacet
  facet normal 0.275635 0.961262 0
    outer loop
      vertex 25.1896 11.4794 -10
      vertex 25.4609 11.4016 -13.299
      vertex 25.1896 11.4794 -13.299
    endloop
  endfacet
  facet normal -0.342019 0.939693 0
    outer loop
      vertex 26.2871 11.5177 -13.299
      vertex 26.0219 11.4212 -10
      vertex 26.2871 11.5177 -10
    endloop
  endfacet
  facet normal -0.342019 0.939693 0
    outer loop
      vertex 26.0219 11.4212 -10
      vertex 26.2871 11.5177 -13.299
      vertex 26.0219 11.4212 -13.299
    endloop
  endfacet
  facet normal 0.0697552 0.997564 -0
    outer loop
      vertex 25.7424 11.3819 -13.299
      vertex 25.4609 11.4016 -10
      vertex 25.7424 11.3819 -10
    endloop
  endfacet
  facet normal 0.0697552 0.997564 0
    outer loop
      vertex 25.4609 11.4016 -10
      vertex 25.7424 11.3819 -13.299
      vertex 25.4609 11.4016 -13.299
    endloop
  endfacet
  facet normal 0.788012 0.61566 0
    outer loop
      vertex 24.7242 11.7933 -10
      vertex 24.5505 12.0157 -13.299
      vertex 24.5505 12.0157 -10
    endloop
  endfacet
  facet normal 0.788012 0.61566 0
    outer loop
      vertex 24.5505 12.0157 -13.299
      vertex 24.7242 11.7933 -10
      vertex 24.7242 11.7933 -13.299
    endloop
  endfacet
  facet normal 0.469473 0.882947 -0
    outer loop
      vertex 25.1896 11.4794 -13.299
      vertex 24.9404 11.6119 -10
      vertex 25.1896 11.4794 -10
    endloop
  endfacet
  facet normal 0.469473 0.882947 0
    outer loop
      vertex 24.9404 11.6119 -10
      vertex 25.1896 11.4794 -13.299
      vertex 24.9404 11.6119 -13.299
    endloop
  endfacet
  facet normal 0.642788 0.766044 -0
    outer loop
      vertex 24.9404 11.6119 -13.299
      vertex 24.7242 11.7933 -10
      vertex 24.9404 11.6119 -10
    endloop
  endfacet
  facet normal 0.642788 0.766044 0
    outer loop
      vertex 24.7242 11.7933 -10
      vertex 24.9404 11.6119 -13.299
      vertex 24.7242 11.7933 -13.299
    endloop
  endfacet
  facet normal -0.791973 -0.386271 -0.472836
    outer loop
      vertex 28.232 13.6544 -15.8
      vertex 26.8402 13.4465 -13.299
      vertex 27.9846 14.1616 -15.8
    endloop
  endfacet
  facet normal -0.791972 -0.386272 -0.472836
    outer loop
      vertex 26.8402 13.4465 -13.299
      vertex 28.232 13.6544 -15.8
      vertex 26.9639 13.1928 -13.299
    endloop
  endfacet
  facet normal -0.816989 0.330084 -0.472837
    outer loop
      vertex 28.0788 11.4638 -15.8
      vertex 26.8873 12.0973 -13.299
      vertex 28.2902 11.9869 -15.8
    endloop
  endfacet
  facet normal -0.854976 -0.213169 -0.472836
    outer loop
      vertex 28.3685 13.1068 -15.8
      vertex 26.9639 13.1928 -13.299
      vertex 28.232 13.6544 -15.8
    endloop
  endfacet
  facet normal -0.854977 -0.213165 -0.472837
    outer loop
      vertex 26.9639 13.1928 -13.299
      vertex 28.3685 13.1068 -15.8
      vertex 27.0322 12.919 -13.299
    endloop
  endfacet
  facet normal 0.791973 0.386271 -0.472836
    outer loop
      vertex 24.5505 12.0157 -13.299
      vertex 23.1587 11.8078 -15.8
      vertex 24.4267 12.2694 -13.299
    endloop
  endfacet
  facet normal 0.791973 0.386271 -0.472836
    outer loop
      vertex 23.1587 11.8078 -15.8
      vertex 24.5505 12.0157 -13.299
      vertex 23.4061 11.3006 -15.8
    endloop
  endfacet
  facet normal -0.566393 -0.675 -0.472836
    outer loop
      vertex 27.6372 14.6063 -15.8
      vertex 26.6664 13.6689 -13.299
      vertex 27.2049 14.969 -15.8
    endloop
  endfacet
  facet normal -0.301371 0.828011 -0.472836
    outer loop
      vertex 26.3484 10.1118 -15.8
      vertex 26.2871 11.5177 -13.299
      vertex 26.8787 10.3048 -15.8
    endloop
  endfacet
  facet normal -0.30137 0.828011 -0.472836
    outer loop
      vertex 26.2871 11.5177 -13.299
      vertex 26.3484 10.1118 -15.8
      vertex 26.0219 11.4212 -13.299
    endloop
  endfacet
  facet normal 0.816989 -0.330083 -0.472836
    outer loop
      vertex 24.5033 13.3649 -13.299
      vertex 23.1005 13.4753 -15.8
      vertex 23.3118 13.9984 -15.8
    endloop
  endfacet
  facet normal -0.413674 -0.77801 -0.472836
    outer loop
      vertex 27.2047 14.9691 -15.8
      vertex 26.201 13.9828 -13.299
      vertex 26.7066 15.234 -15.8
    endloop
  endfacet
  facet normal -0.0614674 -0.879004 -0.472836
    outer loop
      vertex 25.6011 15.4289 -15.8
      vertex 25.9298 14.0606 -13.299
      vertex 25.6482 14.0803 -13.299
    endloop
  endfacet
  facet normal -0.061465 -0.879004 -0.472836
    outer loop
      vertex 25.9298 14.0606 -13.299
      vertex 25.6011 15.4289 -15.8
      vertex 26.1641 15.3895 -15.8
    endloop
  endfacet
  facet normal -0.880614 -0.030749 -0.472836
    outer loop
      vertex 28.3882 12.5428 -15.8
      vertex 27.042 12.6369 -13.299
      vertex 28.3685 13.1067 -15.8
    endloop
  endfacet
  facet normal -0.867764 0.153009 -0.472836
    outer loop
      vertex 28.2902 11.9871 -15.8
      vertex 27.042 12.6369 -13.299
      vertex 28.3882 12.5428 -15.8
    endloop
  endfacet
  facet normal 0.566393 0.675 -0.472836
    outer loop
      vertex 24.1857 10.4932 -15.8
      vertex 23.7535 10.8559 -15.8
      vertex 24.7242 11.7933 -13.299
    endloop
  endfacet
  facet normal 0.880614 0.030752 -0.472836
    outer loop
      vertex 23.0221 12.3555 -15.8
      vertex 23.0024 12.9194 -15.8
      vertex 24.3486 12.8253 -13.299
    endloop
  endfacet
  facet normal 0.854976 0.213172 -0.472836
    outer loop
      vertex 24.4267 12.2694 -13.299
      vertex 23.0221 12.3554 -15.8
      vertex 24.3585 12.5432 -13.299
    endloop
  endfacet
  facet normal 0.854976 0.213169 -0.472836
    outer loop
      vertex 23.0221 12.3554 -15.8
      vertex 24.4267 12.2694 -13.299
      vertex 23.1587 11.8078 -15.8
    endloop
  endfacet
  facet normal 0.867764 -0.153009 -0.472836
    outer loop
      vertex 24.3486 12.8253 -13.299
      vertex 23.0024 12.9194 -15.8
      vertex 23.1004 13.4751 -15.8
    endloop
  endfacet
  facet normal 0.122633 -0.872575 -0.472836
    outer loop
      vertex 25.6482 14.0803 -13.299
      vertex 25.0424 15.3504 -15.8
      vertex 25.6011 15.4289 -15.8
    endloop
  endfacet
  facet normal -0.242878 -0.847016 -0.472836
    outer loop
      vertex 26.201 13.9828 -13.299
      vertex 26.1642 15.3895 -15.8
      vertex 26.7066 15.234 -15.8
    endloop
  endfacet
  facet normal -0.566393 -0.675 -0.472836
    outer loop
      vertex 27.2048 14.9691 -15.8
      vertex 26.6664 13.6689 -13.299
      vertex 26.4502 13.8503 -13.299
    endloop
  endfacet
  facet normal -0.560888 -0.678969 -0.473715
    outer loop
      vertex 26.6664 13.6689 -13.299
      vertex 27.2048 14.9691 -15.8
      vertex 27.2049 14.969 -15.8
    endloop
  endfacet
  facet normal -0.413676 -0.778009 -0.472837
    outer loop
      vertex 27.2047 14.9691 -15.8
      vertex 26.4502 13.8503 -13.299
      vertex 26.201 13.9828 -13.299
    endloop
  endfacet
  facet normal -0.417703 -0.775734 -0.473034
    outer loop
      vertex 26.4502 13.8503 -13.299
      vertex 27.2047 14.9691 -15.8
      vertex 27.2048 14.9691 -15.8
    endloop
  endfacet
  facet normal -0.694356 -0.54249 -0.472836
    outer loop
      vertex 27.9845 14.1617 -15.8
      vertex 26.6664 13.6689 -13.299
      vertex 27.6372 14.6063 -15.8
    endloop
  endfacet
  facet normal -0.689945 -0.548988 -0.471792
    outer loop
      vertex 27.9846 14.1616 -15.8
      vertex 26.6664 13.6689 -13.299
      vertex 27.9845 14.1617 -15.8
    endloop
  endfacet
  facet normal -0.694354 -0.542493 -0.472836
    outer loop
      vertex 26.6664 13.6689 -13.299
      vertex 27.9846 14.1616 -15.8
      vertex 26.8402 13.4465 -13.299
    endloop
  endfacet
  facet normal -0.880666 -0.0298531 -0.472797
    outer loop
      vertex 28.3685 13.1067 -15.8
      vertex 27.0322 12.919 -13.299
      vertex 28.3685 13.1068 -15.8
    endloop
  endfacet
  facet normal -0.880613 -0.0307516 -0.472837
    outer loop
      vertex 27.0322 12.919 -13.299
      vertex 28.3685 13.1067 -15.8
      vertex 27.042 12.6369 -13.299
    endloop
  endfacet
  facet normal -0.867764 0.153008 -0.472836
    outer loop
      vertex 28.2902 11.9871 -15.8
      vertex 26.993 12.359 -13.299
      vertex 27.042 12.6369 -13.299
    endloop
  endfacet
  facet normal -0.868417 0.149727 -0.472687
    outer loop
      vertex 26.993 12.359 -13.299
      vertex 28.2902 11.9871 -15.8
      vertex 28.2902 11.987 -15.8
    endloop
  endfacet
  facet normal -0.816988 0.330086 -0.472836
    outer loop
      vertex 28.2902 11.987 -15.8
      vertex 26.8873 12.0973 -13.299
      vertex 26.993 12.359 -13.299
    endloop
  endfacet
  facet normal -0.817929 0.327171 -0.473235
    outer loop
      vertex 26.8873 12.0973 -13.299
      vertex 28.2902 11.987 -15.8
      vertex 28.2902 11.9869 -15.8
    endloop
  endfacet
  facet normal -0.612098 0.633847 -0.472836
    outer loop
      vertex 27.3573 10.6039 -15.8
      vertex 26.7295 11.8633 -13.299
      vertex 27.7632 10.9959 -15.8
    endloop
  endfacet
  facet normal -0.612099 0.633846 -0.472836
    outer loop
      vertex 26.7295 11.8633 -13.299
      vertex 27.3573 10.6039 -15.8
      vertex 26.5265 11.6673 -13.299
    endloop
  endfacet
  facet normal -0.122632 0.872575 -0.472836
    outer loop
      vertex 25.7895 10.0333 -15.8
      vertex 25.7424 11.3819 -13.299
      vertex 26.3483 10.1118 -15.8
    endloop
  endfacet
  facet normal 0.566393 0.675 -0.472836
    outer loop
      vertex 24.1858 10.4931 -15.8
      vertex 24.7242 11.7933 -13.299
      vertex 24.9404 11.6119 -13.299
    endloop
  endfacet
  facet normal 0.568627 0.673374 -0.472472
    outer loop
      vertex 24.7242 11.7933 -13.299
      vertex 24.1858 10.4931 -15.8
      vertex 24.1857 10.4932 -15.8
    endloop
  endfacet
  facet normal 0.612099 -0.633846 -0.472836
    outer loop
      vertex 24.0334 14.8583 -15.8
      vertex 24.6612 13.5989 -13.299
      vertex 23.6274 14.4663 -15.8
    endloop
  endfacet
  facet normal 0.612099 -0.633846 -0.472836
    outer loop
      vertex 24.6612 13.5989 -13.299
      vertex 24.0334 14.8583 -15.8
      vertex 24.8642 13.7949 -13.299
    endloop
  endfacet
  facet normal 0.880614 0.0307516 -0.472836
    outer loop
      vertex 24.3585 12.5432 -13.299
      vertex 23.0221 12.3555 -15.8
      vertex 24.3486 12.8253 -13.299
    endloop
  endfacet
  facet normal 0.880666 0.0298531 -0.472797
    outer loop
      vertex 23.0221 12.3555 -15.8
      vertex 24.3585 12.5432 -13.299
      vertex 23.0221 12.3554 -15.8
    endloop
  endfacet
  facet normal 0.868661 -0.148489 -0.472629
    outer loop
      vertex 24.3976 13.1032 -13.299
      vertex 23.1004 13.4751 -15.8
      vertex 23.1004 13.4752 -15.8
    endloop
  endfacet
  facet normal 0.867764 -0.153008 -0.472836
    outer loop
      vertex 23.1004 13.4751 -15.8
      vertex 24.3976 13.1032 -13.299
      vertex 24.3486 12.8253 -13.299
    endloop
  endfacet
  facet normal 0.812719 -0.342982 -0.47101
    outer loop
      vertex 24.5033 13.3649 -13.299
      vertex 23.1004 13.4752 -15.8
      vertex 23.1005 13.4753 -15.8
    endloop
  endfacet
  facet normal 0.816988 -0.330085 -0.472836
    outer loop
      vertex 23.1004 13.4752 -15.8
      vertex 24.5033 13.3649 -13.299
      vertex 24.3976 13.1032 -13.299
    endloop
  endfacet
  facet normal -0.242878 -0.847016 -0.472836
    outer loop
      vertex 26.1641 15.3895 -15.8
      vertex 26.201 13.9828 -13.299
      vertex 25.9298 14.0606 -13.299
    endloop
  endfacet
  facet normal -0.245055 -0.846552 -0.472544
    outer loop
      vertex 26.201 13.9828 -13.299
      vertex 26.1641 15.3895 -15.8
      vertex 26.1642 15.3895 -15.8
    endloop
  endfacet
  facet normal 0.118408 -0.873262 -0.472645
    outer loop
      vertex 25.0424 15.3504 -15.8
      vertex 25.3687 14.041 -13.299
      vertex 25.0423 15.3504 -15.8
    endloop
  endfacet
  facet normal 0.122634 -0.872575 -0.472836
    outer loop
      vertex 25.3687 14.041 -13.299
      vertex 25.0424 15.3504 -15.8
      vertex 25.6482 14.0803 -13.299
    endloop
  endfacet
  facet normal -0.730507 0.492733 -0.472836
    outer loop
      vertex 27.7633 10.996 -15.8
      vertex 26.7295 11.8633 -13.299
      vertex 26.8873 12.0973 -13.299
    endloop
  endfacet
  facet normal -0.733257 0.488838 -0.472622
    outer loop
      vertex 26.7295 11.8633 -13.299
      vertex 27.7633 10.996 -15.8
      vertex 27.7632 10.9959 -15.8
    endloop
  endfacet
  facet normal -0.730505 0.492735 -0.472836
    outer loop
      vertex 27.7633 10.996 -15.8
      vertex 26.8873 12.0973 -13.299
      vertex 28.0788 11.4638 -15.8
    endloop
  endfacet
  facet normal -0.466938 0.747258 -0.472836
    outer loop
      vertex 26.8788 10.3049 -15.8
      vertex 26.5265 11.6673 -13.299
      vertex 27.3573 10.6039 -15.8
    endloop
  endfacet
  facet normal 0.0614648 0.879004 -0.472836
    outer loop
      vertex 25.7895 10.0333 -15.8
      vertex 25.4609 11.4016 -13.299
      vertex 25.7424 11.3819 -13.299
    endloop
  endfacet
  facet normal 0.0614665 0.879004 -0.472836
    outer loop
      vertex 25.4609 11.4016 -13.299
      vertex 25.7895 10.0333 -15.8
      vertex 25.2266 10.0726 -15.8
    endloop
  endfacet
  facet normal -0.127752 0.87172 -0.473057
    outer loop
      vertex 26.3483 10.1118 -15.8
      vertex 26.0219 11.4212 -13.299
      vertex 26.3484 10.1118 -15.8
    endloop
  endfacet
  facet normal -0.122634 0.872575 -0.472837
    outer loop
      vertex 26.0219 11.4212 -13.299
      vertex 26.3483 10.1118 -15.8
      vertex 25.7424 11.3819 -13.299
    endloop
  endfacet
  facet normal 0.242876 0.847016 -0.472836
    outer loop
      vertex 25.2266 10.0726 -15.8
      vertex 25.1896 11.4794 -13.299
      vertex 25.4609 11.4016 -13.299
    endloop
  endfacet
  facet normal 0.245055 0.846552 -0.472543
    outer loop
      vertex 25.1896 11.4794 -13.299
      vertex 25.2266 10.0726 -15.8
      vertex 25.2265 10.0727 -15.8
    endloop
  endfacet
  facet normal 0.242878 0.847016 -0.472836
    outer loop
      vertex 25.2265 10.0727 -15.8
      vertex 24.6841 10.2282 -15.8
      vertex 25.1896 11.4794 -13.299
    endloop
  endfacet
  facet normal 0.413676 0.778009 -0.472836
    outer loop
      vertex 24.1859 10.4931 -15.8
      vertex 24.9404 11.6119 -13.299
      vertex 25.1896 11.4794 -13.299
    endloop
  endfacet
  facet normal 0.411957 0.778973 -0.472749
    outer loop
      vertex 24.9404 11.6119 -13.299
      vertex 24.1859 10.4931 -15.8
      vertex 24.1858 10.4931 -15.8
    endloop
  endfacet
  facet normal 0.413674 0.77801 -0.472836
    outer loop
      vertex 24.6841 10.2282 -15.8
      vertex 24.1859 10.4931 -15.8
      vertex 25.1896 11.4794 -13.299
    endloop
  endfacet
  facet normal 0.694355 0.542491 -0.472836
    outer loop
      vertex 23.7535 10.8559 -15.8
      vertex 23.4061 11.3005 -15.8
      vertex 24.7242 11.7933 -13.299
    endloop
  endfacet
  facet normal 0.730871 -0.492219 -0.472809
    outer loop
      vertex 24.6612 13.5989 -13.299
      vertex 23.6274 14.4662 -15.8
      vertex 23.6274 14.4663 -15.8
    endloop
  endfacet
  facet normal 0.730507 -0.492733 -0.472836
    outer loop
      vertex 23.6274 14.4662 -15.8
      vertex 24.6612 13.5989 -13.299
      vertex 24.5033 13.3649 -13.299
    endloop
  endfacet
  facet normal 0.730507 -0.492733 -0.472836
    outer loop
      vertex 24.5033 13.3649 -13.299
      vertex 23.3118 13.9984 -15.8
      vertex 23.6274 14.4662 -15.8
    endloop
  endfacet
  facet normal 0.466938 -0.747258 -0.472836
    outer loop
      vertex 24.8642 13.7949 -13.299
      vertex 24.0334 14.8583 -15.8
      vertex 24.5119 15.1573 -15.8
    endloop
  endfacet
  facet normal -0.469809 0.745728 -0.472407
    outer loop
      vertex 26.8787 10.3048 -15.8
      vertex 26.5265 11.6673 -13.299
      vertex 26.8788 10.3049 -15.8
    endloop
  endfacet
  facet normal -0.466938 0.747258 -0.472836
    outer loop
      vertex 26.5265 11.6673 -13.299
      vertex 26.8787 10.3048 -15.8
      vertex 26.2871 11.5177 -13.299
    endloop
  endfacet
  facet normal 0.694357 0.542489 -0.472836
    outer loop
      vertex 24.7242 11.7933 -13.299
      vertex 23.4061 11.3006 -15.8
      vertex 24.5505 12.0157 -13.299
    endloop
  endfacet
  facet normal 0.696531 0.53925 -0.473344
    outer loop
      vertex 23.4061 11.3006 -15.8
      vertex 24.7242 11.7933 -13.299
      vertex 23.4061 11.3005 -15.8
    endloop
  endfacet
  facet normal 0.469809 -0.745728 -0.472407
    outer loop
      vertex 24.512 15.1574 -15.8
      vertex 24.8642 13.7949 -13.299
      vertex 24.5119 15.1573 -15.8
    endloop
  endfacet
  facet normal 0.466935 -0.74726 -0.472837
    outer loop
      vertex 24.8642 13.7949 -13.299
      vertex 24.512 15.1574 -15.8
      vertex 25.1035 13.9445 -13.299
    endloop
  endfacet
  facet normal 0.301371 -0.82801 -0.472836
    outer loop
      vertex 25.0423 15.3504 -15.8
      vertex 25.1035 13.9445 -13.299
      vertex 24.512 15.1574 -15.8
    endloop
  endfacet
  facet normal 0.301372 -0.82801 -0.472836
    outer loop
      vertex 25.1035 13.9445 -13.299
      vertex 25.0423 15.3504 -15.8
      vertex 25.3687 14.041 -13.299
    endloop
  endfacet
  facet normal -0.939693 -0.34202 0
    outer loop
      vertex 0 0 -15.8
      vertex -2.17183 5.96705 -10
      vertex -2.17183 5.96705 -15.8
    endloop
  endfacet
  facet normal -0.939693 -0.34202 0
    outer loop
      vertex -2.17183 5.96705 -10
      vertex 0 0 -15.8
      vertex 0 0 -10
    endloop
  endfacet
  facet normal -0 0 1
    outer loop
      vertex 5.82817 12.7 -15.8
      vertex 5.82817 8.87881 -15.8
      vertex 16.3268 12.7 -15.8
    endloop
  endfacet
  facet normal 0 0 -1
    outer loop
      vertex 21.8282 0 -15.8
      vertex 28.0702 2.31374 -15.8
      vertex 28.0702 0 -15.8
    endloop
  endfacet
  facet normal -0 0 -1
    outer loop
      vertex 28.0702 2.31374 -15.8
      vertex 21.8282 0 -15.8
      vertex 21.8282 3.41437 -15.8
    endloop
  endfacet
  facet normal 0 0 -1
    outer loop
      vertex 28.0702 0 -15.8
      vertex 30.0702 1.96109 -15.8
      vertex 30.0702 0 -15.8
    endloop
  endfacet
  facet normal 0 0 -1
    outer loop
      vertex 30.0702 1.96109 -15.8
      vertex 28.0702 2.31374 -15.8
      vertex 30.0702 7.039 -15.8
    endloop
  endfacet
  facet normal 0 0 -1
    outer loop
      vertex 30.0702 7.039 -15.8
      vertex 28.0702 7.39166 -15.8
      vertex 30.0702 10.9446 -15.8
    endloop
  endfacet
  facet normal 0 0 -1
    outer loop
      vertex 30.0702 10.9446 -15.8
      vertex 28.2902 11.9871 -15.8
      vertex 28.3882 12.5428 -15.8
    endloop
  endfacet
  facet normal 0 0 -1
    outer loop
      vertex 30.0702 10.9446 -15.8
      vertex 28.2902 11.987 -15.8
      vertex 28.2902 11.9871 -15.8
    endloop
  endfacet
  facet normal 0 0 -1
    outer loop
      vertex 27.3573 10.6039 -15.8
      vertex 30.0702 10.9446 -15.8
      vertex 28.0702 7.39166 -15.8
    endloop
  endfacet
  facet normal 0 0 -1
    outer loop
      vertex 30.0702 10.9446 -15.8
      vertex 28.2902 11.9869 -15.8
      vertex 28.2902 11.987 -15.8
    endloop
  endfacet
  facet normal -0 0 -1
    outer loop
      vertex 30.0702 1.96109 -15.8
      vertex 28.0702 0 -15.8
      vertex 28.0702 2.31374 -15.8
    endloop
  endfacet
  facet normal -0 0 -1
    outer loop
      vertex 30.0702 7.039 -15.8
      vertex 28.0702 2.31374 -15.8
      vertex 28.0702 7.39166 -15.8
    endloop
  endfacet
  facet normal 0 0 -1
    outer loop
      vertex 30.0702 10.9446 -15.8
      vertex 28.0788 11.4638 -15.8
      vertex 28.2902 11.9869 -15.8
    endloop
  endfacet
  facet normal 0 0 -1
    outer loop
      vertex 30.0702 10.9446 -15.8
      vertex 27.7633 10.996 -15.8
      vertex 28.0788 11.4638 -15.8
    endloop
  endfacet
  facet normal 0 0 -1
    outer loop
      vertex 30.0702 10.9446 -15.8
      vertex 27.7632 10.9959 -15.8
      vertex 27.7633 10.996 -15.8
    endloop
  endfacet
  facet normal -0 0 -1
    outer loop
      vertex 30.0702 10.9446 -15.8
      vertex 27.3573 10.6039 -15.8
      vertex 27.7632 10.9959 -15.8
    endloop
  endfacet
  facet normal 0 0 -1
    outer loop
      vertex 28.0702 7.39166 -15.8
      vertex 26.8788 10.3049 -15.8
      vertex 27.3573 10.6039 -15.8
    endloop
  endfacet
  facet normal 0 0 -1
    outer loop
      vertex 28.0702 7.39166 -15.8
      vertex 26.8787 10.3048 -15.8
      vertex 26.8788 10.3049 -15.8
    endloop
  endfacet
  facet normal 0 0 -1
    outer loop
      vertex 28.0702 7.39166 -15.8
      vertex 26.3484 10.1118 -15.8
      vertex 26.8787 10.3048 -15.8
    endloop
  endfacet
  facet normal 0 0 -1
    outer loop
      vertex 28.0702 7.39166 -15.8
      vertex 26.3483 10.1118 -15.8
      vertex 26.3484 10.1118 -15.8
    endloop
  endfacet
  facet normal 0 0 -1
    outer loop
      vertex 28.0702 7.39166 -15.8
      vertex 25.7895 10.0333 -15.8
      vertex 26.3483 10.1118 -15.8
    endloop
  endfacet
  facet normal 0 0 -1
    outer loop
      vertex 28.0702 7.39166 -15.8
      vertex 25.2266 10.0726 -15.8
      vertex 25.7895 10.0333 -15.8
    endloop
  endfacet
  facet normal 0 0 -1
    outer loop
      vertex 21.8282 8.49229 -15.8
      vertex 25.2266 10.0726 -15.8
      vertex 28.0702 7.39166 -15.8
    endloop
  endfacet
  facet normal -0 0 -1
    outer loop
      vertex 25.2266 10.0726 -15.8
      vertex 21.8282 8.49229 -15.8
      vertex 25.2265 10.0727 -15.8
    endloop
  endfacet
  facet normal -0 0 -1
    outer loop
      vertex 25.2265 10.0727 -15.8
      vertex 21.8282 8.49229 -15.8
      vertex 24.6841 10.2282 -15.8
    endloop
  endfacet
  facet normal -0 0 -1
    outer loop
      vertex 24.6841 10.2282 -15.8
      vertex 21.8282 8.49229 -15.8
      vertex 24.1859 10.4931 -15.8
    endloop
  endfacet
  facet normal 0 0 -1
    outer loop
      vertex 21.8282 8.49229 -15.8
      vertex 24.1857 10.4932 -15.8
      vertex 24.1858 10.4931 -15.8
    endloop
  endfacet
  facet normal 0 0 -1
    outer loop
      vertex 21.8282 12.7 -15.8
      vertex 23.0221 12.3555 -15.8
      vertex 23.0221 12.3554 -15.8
    endloop
  endfacet
  facet normal 0 0 -1
    outer loop
      vertex 23.1587 11.8078 -15.8
      vertex 21.8282 12.7 -15.8
      vertex 23.0221 12.3554 -15.8
    endloop
  endfacet
  facet normal 0 0 -1
    outer loop
      vertex 23.4061 11.3006 -15.8
      vertex 21.8282 12.7 -15.8
      vertex 23.1587 11.8078 -15.8
    endloop
  endfacet
  facet normal 0 0 -1
    outer loop
      vertex 21.8282 12.7 -15.8
      vertex 23.4061 11.3006 -15.8
      vertex 21.8282 8.49229 -15.8
    endloop
  endfacet
  facet normal -0 0 -1
    outer loop
      vertex 23.4061 11.3005 -15.8
      vertex 21.8282 8.49229 -15.8
      vertex 23.4061 11.3006 -15.8
    endloop
  endfacet
  facet normal -0 0 -1
    outer loop
      vertex 23.7535 10.8559 -15.8
      vertex 21.8282 8.49229 -15.8
      vertex 23.4061 11.3005 -15.8
    endloop
  endfacet
  facet normal -0 0 -1
    outer loop
      vertex 24.1857 10.4932 -15.8
      vertex 21.8282 8.49229 -15.8
      vertex 23.7535 10.8559 -15.8
    endloop
  endfacet
  facet normal -0 0 -1
    outer loop
      vertex 24.1859 10.4931 -15.8
      vertex 21.8282 8.49229 -15.8
      vertex 24.1858 10.4931 -15.8
    endloop
  endfacet
  facet normal 0 0 -1
    outer loop
      vertex 28.3685 13.1067 -15.8
      vertex 30.0702 10.9446 -15.8
      vertex 28.3882 12.5428 -15.8
    endloop
  endfacet
  facet normal 0 0 -1
    outer loop
      vertex 28.3685 13.1068 -15.8
      vertex 30.0702 10.9446 -15.8
      vertex 28.3685 13.1067 -15.8
    endloop
  endfacet
  facet normal 0 0 -1
    outer loop
      vertex 28.232 13.6544 -15.8
      vertex 30.0702 10.9446 -15.8
      vertex 28.3685 13.1068 -15.8
    endloop
  endfacet
  facet normal 0 0 -1
    outer loop
      vertex 27.8983 16.9117 -15.8
      vertex 28.232 13.6544 -15.8
      vertex 27.9846 14.1616 -15.8
    endloop
  endfacet
  facet normal 0 0 -1
    outer loop
      vertex 28.232 13.6544 -15.8
      vertex 27.8983 16.9117 -15.8
      vertex 30.0702 10.9446 -15.8
    endloop
  endfacet
  facet normal 0 0 -1
    outer loop
      vertex 27.9845 14.1617 -15.8
      vertex 27.8983 16.9117 -15.8
      vertex 27.9846 14.1616 -15.8
    endloop
  endfacet
  facet normal 0 0 -1
    outer loop
      vertex 27.6372 14.6063 -15.8
      vertex 27.8983 16.9117 -15.8
      vertex 27.9845 14.1617 -15.8
    endloop
  endfacet
  facet normal 0 0 -1
    outer loop
      vertex 27.2049 14.969 -15.8
      vertex 27.8983 16.9117 -15.8
      vertex 27.6372 14.6063 -15.8
    endloop
  endfacet
  facet normal 0 0 -1
    outer loop
      vertex 27.2048 14.9691 -15.8
      vertex 27.8983 16.9117 -15.8
      vertex 27.2049 14.969 -15.8
    endloop
  endfacet
  facet normal 0 0 -1
    outer loop
      vertex 27.2047 14.9691 -15.8
      vertex 27.8983 16.9117 -15.8
      vertex 27.2048 14.9691 -15.8
    endloop
  endfacet
  facet normal 0 0 -1
    outer loop
      vertex 26.7066 15.234 -15.8
      vertex 27.8983 16.9117 -15.8
      vertex 27.2047 14.9691 -15.8
    endloop
  endfacet
  facet normal 0 0 -1
    outer loop
      vertex 26.1642 15.3895 -15.8
      vertex 27.8983 16.9117 -15.8
      vertex 26.7066 15.234 -15.8
    endloop
  endfacet
  facet normal 0 0 -1
    outer loop
      vertex 26.1641 15.3895 -15.8
      vertex 27.8983 16.9117 -15.8
      vertex 26.1642 15.3895 -15.8
    endloop
  endfacet
  facet normal 0 0 -1
    outer loop
      vertex 25.6011 15.4289 -15.8
      vertex 27.8983 16.9117 -15.8
      vertex 26.1641 15.3895 -15.8
    endloop
  endfacet
  facet normal 0 0 -1
    outer loop
      vertex 25.0424 15.3504 -15.8
      vertex 27.8983 16.9117 -15.8
      vertex 25.6011 15.4289 -15.8
    endloop
  endfacet
  facet normal 0 0 -1
    outer loop
      vertex 25.0423 15.3504 -15.8
      vertex 27.8983 16.9117 -15.8
      vertex 25.0424 15.3504 -15.8
    endloop
  endfacet
  facet normal 0 0 -1
    outer loop
      vertex 24.512 15.1574 -15.8
      vertex 27.8983 16.9117 -15.8
      vertex 25.0423 15.3504 -15.8
    endloop
  endfacet
  facet normal 0 0 -1
    outer loop
      vertex 16.3268 12.7 -15.8
      vertex 24.5119 15.1573 -15.8
      vertex 24.0334 14.8583 -15.8
    endloop
  endfacet
  facet normal 0 0 -1
    outer loop
      vertex 21.8282 12.7 -15.8
      vertex 23.6274 14.4662 -15.8
      vertex 23.3118 13.9984 -15.8
    endloop
  endfacet
  facet normal 0 0 -1
    outer loop
      vertex 21.8282 12.7 -15.8
      vertex 23.1005 13.4753 -15.8
      vertex 23.1004 13.4752 -15.8
    endloop
  endfacet
  facet normal 0 0 -1
    outer loop
      vertex 21.8282 12.7 -15.8
      vertex 23.1004 13.4751 -15.8
      vertex 23.0024 12.9194 -15.8
    endloop
  endfacet
  facet normal 0 0 -1
    outer loop
      vertex 23.0221 12.3555 -15.8
      vertex 21.8282 12.7 -15.8
      vertex 23.0024 12.9194 -15.8
    endloop
  endfacet
  facet normal -0 0 -1
    outer loop
      vertex 23.1004 13.4751 -15.8
      vertex 21.8282 12.7 -15.8
      vertex 23.1004 13.4752 -15.8
    endloop
  endfacet
  facet normal -0 0 -1
    outer loop
      vertex 23.1005 13.4753 -15.8
      vertex 21.8282 12.7 -15.8
      vertex 23.3118 13.9984 -15.8
    endloop
  endfacet
  facet normal 0 0 -1
    outer loop
      vertex 16.3268 12.7 -15.8
      vertex 23.6274 14.4662 -15.8
      vertex 21.8282 12.7 -15.8
    endloop
  endfacet
  facet normal -0 0 -1
    outer loop
      vertex 24.512 15.1574 -15.8
      vertex 16.3268 12.7 -15.8
      vertex 27.8983 16.9117 -15.8
    endloop
  endfacet
  facet normal -0 0 -1
    outer loop
      vertex 24.5119 15.1573 -15.8
      vertex 16.3268 12.7 -15.8
      vertex 24.512 15.1574 -15.8
    endloop
  endfacet
  facet normal -0 0 -1
    outer loop
      vertex 23.6274 14.4663 -15.8
      vertex 16.3268 12.7 -15.8
      vertex 24.0334 14.8583 -15.8
    endloop
  endfacet
  facet normal -0 0 -1
    outer loop
      vertex 23.6274 14.4662 -15.8
      vertex 16.3268 12.7 -15.8
      vertex 23.6274 14.4663 -15.8
    endloop
  endfacet
  facet normal 0 0 -1
    outer loop
      vertex 5.82817 0 -15.8
      vertex 4.89589 3.99229 -15.8
      vertex 5.82817 8.87881 -15.8
    endloop
  endfacet
  facet normal 0 0 -1
    outer loop
      vertex 5.82817 0 -15.8
      vertex 4.79792 3.43663 -15.8
      vertex 4.89589 3.99229 -15.8
    endloop
  endfacet
  facet normal 0 0 -1
    outer loop
      vertex 5.82817 0 -15.8
      vertex 4.7979 3.43652 -15.8
      vertex 4.79792 3.43663 -15.8
    endloop
  endfacet
  facet normal 0 0 -1
    outer loop
      vertex 5.82817 0 -15.8
      vertex 4.79785 3.43642 -15.8
      vertex 4.7979 3.43652 -15.8
    endloop
  endfacet
  facet normal 0 0 -1
    outer loop
      vertex 5.82817 0 -15.8
      vertex 4.58649 2.91327 -15.8
      vertex 4.79785 3.43642 -15.8
    endloop
  endfacet
  facet normal 0 0 -1
    outer loop
      vertex 5.82817 0 -15.8
      vertex 4.27098 2.44551 -15.8
      vertex 4.58649 2.91327 -15.8
    endloop
  endfacet
  facet normal 0 0 -1
    outer loop
      vertex 5.82817 0 -15.8
      vertex 4.27092 2.44542 -15.8
      vertex 4.27098 2.44551 -15.8
    endloop
  endfacet
  facet normal 0 0 -1
    outer loop
      vertex 5.82817 0 -15.8
      vertex 3.86496 2.05339 -15.8
      vertex 4.27092 2.44542 -15.8
    endloop
  endfacet
  facet normal 0 0 -1
    outer loop
      vertex 5.82817 0 -15.8
      vertex 3.38647 1.7544 -15.8
      vertex 3.86496 2.05339 -15.8
    endloop
  endfacet
  facet normal 0 0 -1
    outer loop
      vertex 5.82817 0 -15.8
      vertex 3.38638 1.75434 -15.8
      vertex 3.38647 1.7544 -15.8
    endloop
  endfacet
  facet normal 0 0 -1
    outer loop
      vertex 5.82817 0 -15.8
      vertex 2.85607 1.56132 -15.8
      vertex 3.38638 1.75434 -15.8
    endloop
  endfacet
  facet normal 0 0 -1
    outer loop
      vertex 5.82817 0 -15.8
      vertex 2.85596 1.56131 -15.8
      vertex 2.85607 1.56132 -15.8
    endloop
  endfacet
  facet normal 0 0 -1
    outer loop
      vertex 5.82817 0 -15.8
      vertex 2.29722 1.48278 -15.8
      vertex 2.85596 1.56131 -15.8
    endloop
  endfacet
  facet normal 0 0 -1
    outer loop
      vertex 0 0 -15.8
      vertex 2.29722 1.48278 -15.8
      vertex 5.82817 0 -15.8
    endloop
  endfacet
  facet normal -0 0 -1
    outer loop
      vertex 2.29722 1.48278 -15.8
      vertex 0 0 -15.8
      vertex 1.73425 1.52215 -15.8
    endloop
  endfacet
  facet normal -0 0 -1
    outer loop
      vertex 1.73425 1.52215 -15.8
      vertex 0 0 -15.8
      vertex 1.73415 1.52218 -15.8
    endloop
  endfacet
  facet normal -0 0 -1
    outer loop
      vertex 1.73415 1.52218 -15.8
      vertex 0 0 -15.8
      vertex 1.19178 1.6777 -15.8
    endloop
  endfacet
  facet normal 0 0 -1
    outer loop
      vertex 0 0 -15.8
      vertex 0.693591 1.94259 -15.8
      vertex 1.19178 1.6777 -15.8
    endloop
  endfacet
  facet normal 0 0 -1
    outer loop
      vertex 0 0 -15.8
      vertex 0.693492 1.94264 -15.8
      vertex 0.693591 1.94259 -15.8
    endloop
  endfacet
  facet normal 0 0 -1
    outer loop
      vertex 0 0 -15.8
      vertex 0.693405 1.94271 -15.8
      vertex 0.693492 1.94264 -15.8
    endloop
  endfacet
  facet normal 0 0 -1
    outer loop
      vertex 0 0 -15.8
      vertex 0.261182 2.30539 -15.8
      vertex 0.693405 1.94271 -15.8
    endloop
  endfacet
  facet normal 0 0 -1
    outer loop
      vertex 0 0 -15.8
      vertex -0.0861919 2.75001 -15.8
      vertex 0.261182 2.30539 -15.8
    endloop
  endfacet
  facet normal 0 0 -1
    outer loop
      vertex 0 0 -15.8
      vertex -0.0862614 2.7501 -15.8
      vertex -0.0861919 2.75001 -15.8
    endloop
  endfacet
  facet normal 0 0 -1
    outer loop
      vertex 0 0 -15.8
      vertex -0.333652 3.25732 -15.8
      vertex -0.0862614 2.7501 -15.8
    endloop
  endfacet
  facet normal 0 0 -1
    outer loop
      vertex -2.17183 5.96705 -15.8
      vertex -0.333652 3.25732 -15.8
      vertex 0 0 -15.8
    endloop
  endfacet
  facet normal 0 0 -1
    outer loop
      vertex -2.17183 5.96705 -15.8
      vertex -0.470182 3.80502 -15.8
      vertex -0.470178 3.8049 -15.8
    endloop
  endfacet
  facet normal 0 0 -1
    outer loop
      vertex -0.470182 3.80502 -15.8
      vertex -2.17183 5.96705 -15.8
      vertex -0.489873 4.3689 -15.8
    endloop
  endfacet
  facet normal 0 0 -1
    outer loop
      vertex -0.333652 3.25732 -15.8
      vertex -2.17183 5.96705 -15.8
      vertex -0.470178 3.8049 -15.8
    endloop
  endfacet
  facet normal 0 0 -1
    outer loop
      vertex 4.8762 4.55617 -15.8
      vertex 5.82817 8.87881 -15.8
      vertex 4.89589 3.99229 -15.8
    endloop
  endfacet
  facet normal 0 0 -1
    outer loop
      vertex 4.8762 4.55629 -15.8
      vertex 5.82817 8.87881 -15.8
      vertex 4.8762 4.55617 -15.8
    endloop
  endfacet
  facet normal 0 0 -1
    outer loop
      vertex 4.73967 5.10386 -15.8
      vertex 5.82817 8.87881 -15.8
      vertex 4.8762 4.55629 -15.8
    endloop
  endfacet
  facet normal 0 0 -1
    outer loop
      vertex 4.49228 5.61109 -15.8
      vertex 5.82817 8.87881 -15.8
      vertex 4.73967 5.10386 -15.8
    endloop
  endfacet
  facet normal 0 0 -1
    outer loop
      vertex 4.49221 5.61118 -15.8
      vertex 5.82817 8.87881 -15.8
      vertex 4.49228 5.61109 -15.8
    endloop
  endfacet
  facet normal 0 0 -1
    outer loop
      vertex 4.14484 6.0558 -15.8
      vertex 5.82817 8.87881 -15.8
      vertex 4.49221 5.61118 -15.8
    endloop
  endfacet
  facet normal 0 0 -1
    outer loop
      vertex 3.71262 6.41848 -15.8
      vertex 5.82817 8.87881 -15.8
      vertex 4.14484 6.0558 -15.8
    endloop
  endfacet
  facet normal 0 0 -1
    outer loop
      vertex 3.71253 6.41855 -15.8
      vertex 5.82817 8.87881 -15.8
      vertex 3.71262 6.41848 -15.8
    endloop
  endfacet
  facet normal 0 0 -1
    outer loop
      vertex 3.71243 6.4186 -15.8
      vertex 5.82817 8.87881 -15.8
      vertex 3.71253 6.41855 -15.8
    endloop
  endfacet
  facet normal 0 0 -1
    outer loop
      vertex 3.21425 6.68349 -15.8
      vertex 5.82817 8.87881 -15.8
      vertex 3.71243 6.4186 -15.8
    endloop
  endfacet
  facet normal 0 0 -1
    outer loop
      vertex 2.67187 6.83901 -15.8
      vertex 5.82817 8.87881 -15.8
      vertex 3.21425 6.68349 -15.8
    endloop
  endfacet
  facet normal 0 0 -1
    outer loop
      vertex 2.67177 6.83904 -15.8
      vertex 5.82817 8.87881 -15.8
      vertex 2.67187 6.83901 -15.8
    endloop
  endfacet
  facet normal 0 0 -1
    outer loop
      vertex 2.1088 6.87841 -15.8
      vertex 5.82817 8.87881 -15.8
      vertex 2.67177 6.83904 -15.8
    endloop
  endfacet
  facet normal 0 0 -1
    outer loop
      vertex 1.55006 6.79988 -15.8
      vertex 5.82817 8.87881 -15.8
      vertex 2.1088 6.87841 -15.8
    endloop
  endfacet
  facet normal 0 0 -1
    outer loop
      vertex 1.54995 6.79987 -15.8
      vertex 5.82817 8.87881 -15.8
      vertex 1.55006 6.79988 -15.8
    endloop
  endfacet
  facet normal 0 0 -1
    outer loop
      vertex -2.17183 5.96705 -15.8
      vertex 1.54995 6.79987 -15.8
      vertex 1.01965 6.60685 -15.8
    endloop
  endfacet
  facet normal -0 0 -1
    outer loop
      vertex 1.54995 6.79987 -15.8
      vertex -2.17183 5.96705 -15.8
      vertex 5.82817 8.87881 -15.8
    endloop
  endfacet
  facet normal -0 0 -1
    outer loop
      vertex 1.01955 6.60679 -15.8
      vertex -2.17183 5.96705 -15.8
      vertex 1.01965 6.60685 -15.8
    endloop
  endfacet
  facet normal -0 0 -1
    outer loop
      vertex 0.541057 6.3078 -15.8
      vertex -2.17183 5.96705 -15.8
      vertex 1.01955 6.60679 -15.8
    endloop
  endfacet
  facet normal 0 0 -1
    outer loop
      vertex 0.135104 5.91577 -15.8
      vertex -2.17183 5.96705 -15.8
      vertex 0.541057 6.3078 -15.8
    endloop
  endfacet
  facet normal 0 0 -1
    outer loop
      vertex 0.135041 5.91568 -15.8
      vertex -2.17183 5.96705 -15.8
      vertex 0.135104 5.91577 -15.8
    endloop
  endfacet
  facet normal 0 0 -1
    outer loop
      vertex -0.180471 5.44791 -15.8
      vertex -2.17183 5.96705 -15.8
      vertex 0.135041 5.91568 -15.8
    endloop
  endfacet
  facet normal 0 0 -1
    outer loop
      vertex -0.391835 4.92477 -15.8
      vertex -2.17183 5.96705 -15.8
      vertex -0.180471 5.44791 -15.8
    endloop
  endfacet
  facet normal 0 0 -1
    outer loop
      vertex -0.391877 4.92467 -15.8
      vertex -2.17183 5.96705 -15.8
      vertex -0.391835 4.92477 -15.8
    endloop
  endfacet
  facet normal 0 0 -1
    outer loop
      vertex -0.391896 4.92456 -15.8
      vertex -2.17183 5.96705 -15.8
      vertex -0.391877 4.92467 -15.8
    endloop
  endfacet
  facet normal 0 0 -1
    outer loop
      vertex -2.17183 5.96705 -15.8
      vertex -0.391896 4.92456 -15.8
      vertex -0.489873 4.3689 -15.8
    endloop
  endfacet
  facet normal 0.939693 0.34202 0
    outer loop
      vertex 30.0702 10.9446 -10
      vertex 27.8983 16.9117 -15.8
      vertex 27.8983 16.9117 -10
    endloop
  endfacet
  facet normal 0.939693 0.34202 0
    outer loop
      vertex 27.8983 16.9117 -15.8
      vertex 30.0702 10.9446 -10
      vertex 30.0702 10.9446 -15.8
    endloop
  endfacet
  facet normal 0 0 1
    outer loop
      vertex 30.0702 10.9446 -10
      vertex 27.0322 12.919 -10
      vertex 27.042 12.6369 -10
    endloop
  endfacet
  facet normal 0 0 1
    outer loop
      vertex 30.0702 10.9446 -10
      vertex 26.9639 13.1928 -10
      vertex 27.0322 12.919 -10
    endloop
  endfacet
  facet normal 0 0 1
    outer loop
      vertex 27.8983 16.9117 -10
      vertex 26.8402 13.4465 -10
      vertex 26.9639 13.1928 -10
    endloop
  endfacet
  facet normal 0 0 1
    outer loop
      vertex 27.8983 16.9117 -10
      vertex 26.6664 13.6689 -10
      vertex 26.8402 13.4465 -10
    endloop
  endfacet
  facet normal 0 0 1
    outer loop
      vertex 27.8983 16.9117 -10
      vertex 26.4502 13.8503 -10
      vertex 26.6664 13.6689 -10
    endloop
  endfacet
  facet normal 0 0 1
    outer loop
      vertex 27.8983 16.9117 -10
      vertex 26.201 13.9828 -10
      vertex 26.4502 13.8503 -10
    endloop
  endfacet
  facet normal 0 0 1
    outer loop
      vertex 27.8983 16.9117 -10
      vertex 25.9298 14.0606 -10
      vertex 26.201 13.9828 -10
    endloop
  endfacet
  facet normal 0 0 1
    outer loop
      vertex 27.8983 16.9117 -10
      vertex 25.6482 14.0803 -10
      vertex 25.9298 14.0606 -10
    endloop
  endfacet
  facet normal 0 0 1
    outer loop
      vertex 27.8983 16.9117 -10
      vertex 25.3687 14.041 -10
      vertex 25.6482 14.0803 -10
    endloop
  endfacet
  facet normal 0 0 1
    outer loop
      vertex 27.8983 16.9117 -10
      vertex 25.1035 13.9445 -10
      vertex 25.3687 14.041 -10
    endloop
  endfacet
  facet normal 0 0 1
    outer loop
      vertex 27.8983 16.9117 -10
      vertex 24.8642 13.7949 -10
      vertex 25.1035 13.9445 -10
    endloop
  endfacet
  facet normal 0 0 1
    outer loop
      vertex 18.3709 11.7393 -10
      vertex 24.8642 13.7949 -10
      vertex 27.8983 16.9117 -10
    endloop
  endfacet
  facet normal 0 0 1
    outer loop
      vertex 18.3709 11.7393 -10
      vertex 24.3486 12.8253 -10
      vertex 24.3976 13.1032 -10
    endloop
  endfacet
  facet normal 0 0 1
    outer loop
      vertex 18.3709 11.7393 -10
      vertex 24.3976 13.1032 -10
      vertex 24.5033 13.3649 -10
    endloop
  endfacet
  facet normal 0 0 1
    outer loop
      vertex 18.3709 11.7393 -10
      vertex 24.5033 13.3649 -10
      vertex 24.6612 13.5989 -10
    endloop
  endfacet
  facet normal 0 0 1
    outer loop
      vertex 24.8642 13.7949 -10
      vertex 18.3709 11.7393 -10
      vertex 24.6612 13.5989 -10
    endloop
  endfacet
  facet normal 0 0 1
    outer loop
      vertex 24.3486 12.8253 -10
      vertex 18.3709 11.7393 -10
      vertex 19.3966 8.92104 -10
    endloop
  endfacet
  facet normal 0 0 1
    outer loop
      vertex 27.8983 16.9117 -10
      vertex 8.97394 8.31908 -10
      vertex 18.3709 11.7393 -10
    endloop
  endfacet
  facet normal 0 0 1
    outer loop
      vertex 10 5.5 -10
      vertex 3.54972 4.08642 -10
      vertex 5.82817 0 -10
    endloop
  endfacet
  facet normal 0 0 1
    outer loop
      vertex 10 5.5 -10
      vertex 3.53987 4.36848 -10
      vertex 3.54972 4.08642 -10
    endloop
  endfacet
  facet normal 0 0 1
    outer loop
      vertex 10 5.5 -10
      vertex 3.47159 4.64232 -10
      vertex 3.53987 4.36848 -10
    endloop
  endfacet
  facet normal 0 0 1
    outer loop
      vertex 8.97394 8.31908 -10
      vertex 3.34787 4.89599 -10
      vertex 3.47159 4.64232 -10
    endloop
  endfacet
  facet normal 0 0 1
    outer loop
      vertex 8.97394 8.31908 -10
      vertex 3.17412 5.11838 -10
      vertex 3.34787 4.89599 -10
    endloop
  endfacet
  facet normal 0 0 1
    outer loop
      vertex 8.97394 8.31908 -10
      vertex 2.95792 5.29979 -10
      vertex 3.17412 5.11838 -10
    endloop
  endfacet
  facet normal 0 0 1
    outer loop
      vertex 8.97394 8.31908 -10
      vertex 2.70873 5.43229 -10
      vertex 2.95792 5.29979 -10
    endloop
  endfacet
  facet normal 0 0 1
    outer loop
      vertex 8.97394 8.31908 -10
      vertex 2.43743 5.51008 -10
      vertex 2.70873 5.43229 -10
    endloop
  endfacet
  facet normal 0 0 1
    outer loop
      vertex -2.17183 5.96705 -10
      vertex 8.97394 8.31908 -10
      vertex 27.8983 16.9117 -10
    endloop
  endfacet
  facet normal 0 0 1
    outer loop
      vertex 8.97394 8.31908 -10
      vertex 2.1559 5.52977 -10
      vertex 2.43743 5.51008 -10
    endloop
  endfacet
  facet normal 0 0 1
    outer loop
      vertex 8.97394 8.31908 -10
      vertex -2.17183 5.96705 -10
      vertex 2.1559 5.52977 -10
    endloop
  endfacet
  facet normal 0 0 1
    outer loop
      vertex 2.1559 5.52977 -10
      vertex -2.17183 5.96705 -10
      vertex 1.87642 5.49049 -10
    endloop
  endfacet
  facet normal 0 0 1
    outer loop
      vertex -2.17183 5.96705 -10
      vertex 0.856299 4.27477 -10
      vertex 0.905307 4.5527 -10
    endloop
  endfacet
  facet normal 0 0 1
    outer loop
      vertex 0.856299 4.27477 -10
      vertex -2.17183 5.96705 -10
      vertex 0 0 -10
    endloop
  endfacet
  facet normal 0 0 1
    outer loop
      vertex 1.01103 4.81438 -10
      vertex -2.17183 5.96705 -10
      vertex 0.905307 4.5527 -10
    endloop
  endfacet
  facet normal 0 0 1
    outer loop
      vertex 1.16885 5.04836 -10
      vertex -2.17183 5.96705 -10
      vertex 1.01103 4.81438 -10
    endloop
  endfacet
  facet normal 0 0 1
    outer loop
      vertex 1.37187 5.24441 -10
      vertex -2.17183 5.96705 -10
      vertex 1.16885 5.04836 -10
    endloop
  endfacet
  facet normal 0 0 1
    outer loop
      vertex 1.61121 5.39397 -10
      vertex -2.17183 5.96705 -10
      vertex 1.37187 5.24441 -10
    endloop
  endfacet
  facet normal 0 0 1
    outer loop
      vertex 1.87642 5.49049 -10
      vertex -2.17183 5.96705 -10
      vertex 1.61121 5.39397 -10
    endloop
  endfacet
  facet normal -0 0 1
    outer loop
      vertex 28.0702 7.39166 -10
      vertex 30.0702 7.039 -10
      vertex 30.0702 10.9446 -10
    endloop
  endfacet
  facet normal 0 0 1
    outer loop
      vertex 28.0702 2.31374 -10
      vertex 30.0702 7.039 -10
      vertex 28.0702 7.39166 -10
    endloop
  endfacet
  facet normal 0 0 1
    outer loop
      vertex 30.0702 7.039 -10
      vertex 28.0702 2.31374 -10
      vertex 30.0702 1.96109 -10
    endloop
  endfacet
  facet normal -0 0 1
    outer loop
      vertex 26.9639 13.1928 -10
      vertex 30.0702 10.9446 -10
      vertex 27.8983 16.9117 -10
    endloop
  endfacet
  facet normal -0 0 1
    outer loop
      vertex 26.993 12.359 -10
      vertex 30.0702 10.9446 -10
      vertex 27.042 12.6369 -10
    endloop
  endfacet
  facet normal -0 0 1
    outer loop
      vertex 26.8873 12.0973 -10
      vertex 30.0702 10.9446 -10
      vertex 26.993 12.359 -10
    endloop
  endfacet
  facet normal -0 0 1
    outer loop
      vertex 26.7295 11.8633 -10
      vertex 30.0702 10.9446 -10
      vertex 26.8873 12.0973 -10
    endloop
  endfacet
  facet normal -0 0 1
    outer loop
      vertex 26.5265 11.6673 -10
      vertex 30.0702 10.9446 -10
      vertex 26.7295 11.8633 -10
    endloop
  endfacet
  facet normal 0 0 1
    outer loop
      vertex 30.0702 10.9446 -10
      vertex 26.5265 11.6673 -10
      vertex 28.0702 7.39166 -10
    endloop
  endfacet
  facet normal -0 0 1
    outer loop
      vertex 26.2871 11.5177 -10
      vertex 28.0702 7.39166 -10
      vertex 26.5265 11.6673 -10
    endloop
  endfacet
  facet normal -0 0 1
    outer loop
      vertex 26.0219 11.4212 -10
      vertex 28.0702 7.39166 -10
      vertex 26.2871 11.5177 -10
    endloop
  endfacet
  facet normal -0 0 1
    outer loop
      vertex 25.7424 11.3819 -10
      vertex 28.0702 7.39166 -10
      vertex 26.0219 11.4212 -10
    endloop
  endfacet
  facet normal 0 0 1
    outer loop
      vertex 25.4609 11.4016 -10
      vertex 28.0702 7.39166 -10
      vertex 25.7424 11.3819 -10
    endloop
  endfacet
  facet normal 0 0 1
    outer loop
      vertex 25.1896 11.4794 -10
      vertex 28.0702 7.39166 -10
      vertex 25.4609 11.4016 -10
    endloop
  endfacet
  facet normal 0 0 1
    outer loop
      vertex 19.3966 8.92104 -10
      vertex 25.1896 11.4794 -10
      vertex 24.9404 11.6119 -10
    endloop
  endfacet
  facet normal 0 0 1
    outer loop
      vertex 19.3966 8.92104 -10
      vertex 24.9404 11.6119 -10
      vertex 24.7242 11.7933 -10
    endloop
  endfacet
  facet normal 0 0 1
    outer loop
      vertex 19.3966 8.92104 -10
      vertex 24.7242 11.7933 -10
      vertex 24.5505 12.0157 -10
    endloop
  endfacet
  facet normal 0 0 1
    outer loop
      vertex 25.1896 11.4794 -10
      vertex 19.3966 8.92104 -10
      vertex 28.0702 7.39166 -10
    endloop
  endfacet
  facet normal 0 0 1
    outer loop
      vertex 24.4267 12.2694 -10
      vertex 19.3966 8.92104 -10
      vertex 24.5505 12.0157 -10
    endloop
  endfacet
  facet normal 0 0 1
    outer loop
      vertex 24.3585 12.5432 -10
      vertex 19.3966 8.92104 -10
      vertex 24.4267 12.2694 -10
    endloop
  endfacet
  facet normal 0 0 1
    outer loop
      vertex 19.3966 8.92104 -10
      vertex 24.3585 12.5432 -10
      vertex 24.3486 12.8253 -10
    endloop
  endfacet
  facet normal 0 0 1
    outer loop
      vertex 28.0702 0 -10
      vertex 30.0702 1.96109 -10
      vertex 28.0702 2.31374 -10
    endloop
  endfacet
  facet normal 0 0 1
    outer loop
      vertex 30.0702 1.96109 -10
      vertex 28.0702 0 -10
      vertex 30.0702 0 -10
    endloop
  endfacet
  facet normal 0 0 1
    outer loop
      vertex 28.0702 2.31374 -10
      vertex 21.8282 0 -10
      vertex 28.0702 0 -10
    endloop
  endfacet
  facet normal 0 0 1
    outer loop
      vertex 10 5.5 -10
      vertex 21.8282 0 -10
      vertex 28.0702 2.31374 -10
    endloop
  endfacet
  facet normal 0 0 1
    outer loop
      vertex 10 5.5 -10
      vertex 5.82817 0 -10
      vertex 21.8282 0 -10
    endloop
  endfacet
  facet normal 0 0 1
    outer loop
      vertex 3.47159 4.64232 -10
      vertex 10 5.5 -10
      vertex 8.97394 8.31908 -10
    endloop
  endfacet
  facet normal -0 0 1
    outer loop
      vertex 3.50071 3.80848 -10
      vertex 5.82817 0 -10
      vertex 3.54972 4.08642 -10
    endloop
  endfacet
  facet normal -0 0 1
    outer loop
      vertex 3.39499 3.54681 -10
      vertex 5.82817 0 -10
      vertex 3.50071 3.80848 -10
    endloop
  endfacet
  facet normal -0 0 1
    outer loop
      vertex 3.23717 3.31283 -10
      vertex 5.82817 0 -10
      vertex 3.39499 3.54681 -10
    endloop
  endfacet
  facet normal -0 0 1
    outer loop
      vertex 3.03415 3.11678 -10
      vertex 5.82817 0 -10
      vertex 3.23717 3.31283 -10
    endloop
  endfacet
  facet normal -0 0 1
    outer loop
      vertex 2.79481 2.96722 -10
      vertex 5.82817 0 -10
      vertex 3.03415 3.11678 -10
    endloop
  endfacet
  facet normal -0 0 1
    outer loop
      vertex 2.5296 2.8707 -10
      vertex 5.82817 0 -10
      vertex 2.79481 2.96722 -10
    endloop
  endfacet
  facet normal 0 0 1
    outer loop
      vertex 0 0 -10
      vertex 2.5296 2.8707 -10
      vertex 2.25012 2.83142 -10
    endloop
  endfacet
  facet normal 0 0 1
    outer loop
      vertex 0 0 -10
      vertex 2.25012 2.83142 -10
      vertex 1.96859 2.8511 -10
    endloop
  endfacet
  facet normal 0 0 1
    outer loop
      vertex 0 0 -10
      vertex 1.96859 2.8511 -10
      vertex 1.69729 2.9289 -10
    endloop
  endfacet
  facet normal 0 0 1
    outer loop
      vertex 0 0 -10
      vertex 1.69729 2.9289 -10
      vertex 1.4481 3.06139 -10
    endloop
  endfacet
  facet normal 0 0 1
    outer loop
      vertex 2.5296 2.8707 -10
      vertex 0 0 -10
      vertex 5.82817 0 -10
    endloop
  endfacet
  facet normal 0 0 1
    outer loop
      vertex 1.2319 3.24281 -10
      vertex 0 0 -10
      vertex 1.4481 3.06139 -10
    endloop
  endfacet
  facet normal 0 0 1
    outer loop
      vertex 1.05815 3.4652 -10
      vertex 0 0 -10
      vertex 1.2319 3.24281 -10
    endloop
  endfacet
  facet normal 0 0 1
    outer loop
      vertex 0.934426 3.71887 -10
      vertex 0 0 -10
      vertex 1.05815 3.4652 -10
    endloop
  endfacet
  facet normal 0 0 1
    outer loop
      vertex 0.866149 3.99271 -10
      vertex 0 0 -10
      vertex 0.934426 3.71887 -10
    endloop
  endfacet
  facet normal 0 0 1
    outer loop
      vertex 0 0 -10
      vertex 0.866149 3.99271 -10
      vertex 0.856299 4.27477 -10
    endloop
  endfacet
  facet normal -0.34202 0.939693 0
    outer loop
      vertex 16.3268 12.7 -15.8
      vertex 27.8983 16.9117 -10
      vertex 27.8983 16.9117 -15.8
    endloop
  endfacet
  facet normal -0.34202 0.939693 1.99241e-08
    outer loop
      vertex 27.8983 16.9117 -10
      vertex 16.3268 12.7 -15.8
      vertex -2.17183 5.96705 -10
    endloop
  endfacet
  facet normal -0.34202 0.939693 -1.27838e-07
    outer loop
      vertex 5.82817 8.87881 -15.8
      vertex -2.17183 5.96705 -10
      vertex 16.3268 12.7 -15.8
    endloop
  endfacet
  facet normal -0.34202 0.939693 0
    outer loop
      vertex -2.17183 5.96705 -10
      vertex 5.82817 8.87881 -15.8
      vertex -2.17183 5.96705 -15.8
    endloop
  endfacet
  facet normal 0 -1 0
    outer loop
      vertex 5.82817 0 -15.8
      vertex 21.8282 0 -10
      vertex 5.82817 0 -10
    endloop
  endfacet
  facet normal 0 -1 0
    outer loop
      vertex 5.82817 0 -15.8
      vertex 21.8282 0 -15.8
      vertex 21.8282 0 -10
    endloop
  endfacet
  facet normal 0 -1 0
    outer loop
      vertex 5.82817 0 -23.8
      vertex 21.8282 0 -15.8
      vertex 5.82817 0 -15.8
    endloop
  endfacet
  facet normal 0 -1 -0
    outer loop
      vertex 21.8282 0 -15.8
      vertex 5.82817 0 -23.8
      vertex 21.8282 0 -23.8
    endloop
  endfacet
  facet normal 0 -1 0
    outer loop
      vertex 0 0 -15.8
      vertex 5.82817 0 -10
      vertex 0 0 -10
    endloop
  endfacet
  facet normal 0 -1 -0
    outer loop
      vertex 5.82817 0 -10
      vertex 0 0 -15.8
      vertex 5.82817 0 -15.8
    endloop
  endfacet
  facet normal 0 -1 0
    outer loop
      vertex 28.0702 0 -15.8
      vertex 30.0702 0 -10
      vertex 28.0702 0 -10
    endloop
  endfacet
  facet normal 0 -1 -0
    outer loop
      vertex 30.0702 0 -10
      vertex 28.0702 0 -15.8
      vertex 30.0702 0 -15.8
    endloop
  endfacet
  facet normal 0 -1 0
    outer loop
      vertex 21.8282 0 -15.8
      vertex 28.0702 0 -10
      vertex 21.8282 0 -10
    endloop
  endfacet
  facet normal 0 -1 -0
    outer loop
      vertex 28.0702 0 -10
      vertex 21.8282 0 -15.8
      vertex 28.0702 0 -15.8
    endloop
  endfacet
  facet normal 1 -0 0
    outer loop
      vertex 30.0702 7.039 -10
      vertex 30.0702 10.9446 -15.8
      vertex 30.0702 10.9446 -10
    endloop
  endfacet
  facet normal 1 0 0
    outer loop
      vertex 30.0702 10.9446 -15.8
      vertex 30.0702 7.039 -10
      vertex 30.0702 7.039 -15.8
    endloop
  endfacet
  facet normal 1 -0 0
    outer loop
      vertex 30.0702 0 -10
      vertex 30.0702 1.96109 -15.8
      vertex 30.0702 1.96109 -10
    endloop
  endfacet
  facet normal 1 0 0
    outer loop
      vertex 30.0702 1.96109 -15.8
      vertex 30.0702 0 -10
      vertex 30.0702 0 -15.8
    endloop
  endfacet
  facet normal -1 0 0
    outer loop
      vertex 5.82817 0 -36.8
      vertex 5.82817 7.6 -34.8
      vertex 5.82817 9.35 -36.8
    endloop
  endfacet
  facet normal -1 -0 0
    outer loop
      vertex 5.82817 7.6 -34.8
      vertex 5.82817 0 -36.8
      vertex 5.82817 0 -34.8
    endloop
  endfacet
  facet normal -1 0 0
    outer loop
      vertex 5.82817 10.099 -23.8
      vertex 5.82817 12.7 -33.45
      vertex 5.82817 10.099 -26.3
    endloop
  endfacet
  facet normal -1 0 0
    outer loop
      vertex 5.82817 7.6 -34.8
      vertex 5.82817 12.7 -33.45
      vertex 5.82817 9.35 -36.8
    endloop
  endfacet
  facet normal -1 -0 0
    outer loop
      vertex 5.82817 12.7 -33.45
      vertex 5.82817 7.6 -34.8
      vertex 5.82817 10.099 -26.3
    endloop
  endfacet
  facet normal -1 -0 0
    outer loop
      vertex 5.82817 10.099 -26.3
      vertex 5.82817 7.6 -34.8
      vertex 5.82817 7.6 -26.3
    endloop
  endfacet
  facet normal -1 0 0
    outer loop
      vertex 5.82817 12.7 -33.45
      vertex 5.82817 10.099 -23.8
      vertex 5.82817 12.7 -15.8
    endloop
  endfacet
  facet normal -1 0 0
    outer loop
      vertex 5.82817 10.099 -23.8
      vertex 5.82817 8.87881 -15.8
      vertex 5.82817 12.7 -15.8
    endloop
  endfacet
  facet normal -1 0 0
    outer loop
      vertex 5.82817 7.599 -23.8
      vertex 5.82817 8.87881 -15.8
      vertex 5.82817 10.099 -23.8
    endloop
  endfacet
  facet normal -1 0 0
    outer loop
      vertex 5.82817 0 -15.8
      vertex 5.82817 7.599 -23.8
      vertex 5.82817 0 -23.8
    endloop
  endfacet
  facet normal -1 0 0
    outer loop
      vertex 5.82817 7.599 -23.8
      vertex 5.82817 0 -15.8
      vertex 5.82817 8.87881 -15.8
    endloop
  endfacet
  facet normal 1 0 0
    outer loop
      vertex 21.8282 3.41437 -15.8
      vertex 21.8282 0 -15.8
      vertex 21.8282 3.41437 -15.801
    endloop
  endfacet
  facet normal 1 0 0
    outer loop
      vertex 21.8282 12.7 -15.8
      vertex 21.8282 10.099 -23.8
      vertex 21.8282 12.7 -33.45
    endloop
  endfacet
  facet normal 1 0 0
    outer loop
      vertex 21.8282 8.49229 -15.801
      vertex 21.8282 12.7 -15.8
      vertex 21.8282 8.49229 -15.8
    endloop
  endfacet
  facet normal 1 0 0
    outer loop
      vertex 21.8282 12.7 -15.8
      vertex 21.8282 8.49229 -15.801
      vertex 21.8282 10.099 -23.8
    endloop
  endfacet
  facet normal 1 0 0
    outer loop
      vertex 21.8282 8.49229 -15.801
      vertex 21.8282 7.599 -23.8
      vertex 21.8282 10.099 -23.8
    endloop
  endfacet
  facet normal 1 -0 0
    outer loop
      vertex 21.8282 3.41437 -15.801
      vertex 21.8282 7.599 -23.8
      vertex 21.8282 8.49229 -15.801
    endloop
  endfacet
  facet normal 1 0 0
    outer loop
      vertex 21.8282 0 -23.8
      vertex 21.8282 3.41437 -15.801
      vertex 21.8282 0 -15.8
    endloop
  endfacet
  facet normal 1 0 0
    outer loop
      vertex 21.8282 3.41437 -15.801
      vertex 21.8282 0 -23.8
      vertex 21.8282 7.599 -23.8
    endloop
  endfacet
  facet normal 1 -0 0
    outer loop
      vertex 21.8282 10.099 -26.3
      vertex 21.8282 12.7 -33.45
      vertex 21.8282 10.099 -23.8
    endloop
  endfacet
  facet normal 1 0 0
    outer loop
      vertex 21.8282 7.6 -34.8
      vertex 21.8282 12.7 -33.45
      vertex 21.8282 10.099 -26.3
    endloop
  endfacet
  facet normal 1 0 0
    outer loop
      vertex 21.8282 7.6 -34.8
      vertex 21.8282 10.099 -26.3
      vertex 21.8282 7.6 -26.3
    endloop
  endfacet
  facet normal 1 0 0
    outer loop
      vertex 21.8282 12.7 -33.45
      vertex 21.8282 7.6 -34.8
      vertex 21.8282 9.35 -36.8
    endloop
  endfacet
  facet normal 1 0 0
    outer loop
      vertex 21.8282 0 -36.8
      vertex 21.8282 7.6 -34.8
      vertex 21.8282 0 -34.8
    endloop
  endfacet
  facet normal 1 0 0
    outer loop
      vertex 21.8282 7.6 -34.8
      vertex 21.8282 0 -36.8
      vertex 21.8282 9.35 -36.8
    endloop
  endfacet
  facet normal 0 0 -1
    outer loop
      vertex 5.82817 0 -23.8
      vertex 21.8282 7.599 -23.8
      vertex 21.8282 0 -23.8
    endloop
  endfacet
  facet normal -0 0 -1
    outer loop
      vertex 21.8282 7.599 -23.8
      vertex 5.82817 0 -23.8
      vertex 5.82817 7.599 -23.8
    endloop
  endfacet
  facet normal 0 0 -1
    outer loop
      vertex 5.82817 7.599 -23.8
      vertex 21.8282 10.099 -23.8
      vertex 21.8282 7.599 -23.8
    endloop
  endfacet
  facet normal -0 0 -1
    outer loop
      vertex 21.8282 10.099 -23.8
      vertex 5.82817 7.599 -23.8
      vertex 5.82817 10.099 -23.8
    endloop
  endfacet
  facet normal 0 1 -0
    outer loop
      vertex 21.8282 12.7 -33.45
      vertex 16.3268 12.7 -15.8
      vertex 21.8282 12.7 -15.8
    endloop
  endfacet
  facet normal 0 1 0
    outer loop
      vertex 5.82817 12.7 -33.45
      vertex 16.3268 12.7 -15.8
      vertex 21.8282 12.7 -33.45
    endloop
  endfacet
  facet normal 0 1 0
    outer loop
      vertex 16.3268 12.7 -15.8
      vertex 5.82817 12.7 -33.45
      vertex 5.82817 12.7 -15.8
    endloop
  endfacet
  facet normal -0 0 1
    outer loop
      vertex 5.82817 7.6 -34.8
      vertex 21.8282 0 -34.8
      vertex 21.8282 7.6 -34.8
    endloop
  endfacet
  facet normal 0 0 1
    outer loop
      vertex 21.8282 0 -34.8
      vertex 5.82817 7.6 -34.8
      vertex 5.82817 0 -34.8
    endloop
  endfacet
  facet normal 0 -1 0
    outer loop
      vertex 5.82817 7.6 -34.8
      vertex 21.8282 7.6 -26.3
      vertex 5.82817 7.6 -26.3
    endloop
  endfacet
  facet normal 0 -1 -0
    outer loop
      vertex 21.8282 7.6 -26.3
      vertex 5.82817 7.6 -34.8
      vertex 21.8282 7.6 -34.8
    endloop
  endfacet
  facet normal 0 0 -1
    outer loop
      vertex 5.82817 0 -36.8
      vertex 21.8282 9.35 -36.8
      vertex 21.8282 0 -36.8
    endloop
  endfacet
  facet normal -0 0 -1
    outer loop
      vertex 21.8282 9.35 -36.8
      vertex 5.82817 0 -36.8
      vertex 5.82817 9.35 -36.8
    endloop
  endfacet
  facet normal 0 -1 0
    outer loop
      vertex 5.82817 0 -36.8
      vertex 21.8282 0 -34.8
      vertex 5.82817 0 -34.8
    endloop
  endfacet
  facet normal 0 -1 -0
    outer loop
      vertex 21.8282 0 -34.8
      vertex 5.82817 0 -36.8
      vertex 21.8282 0 -36.8
    endloop
  endfacet
  facet normal -0 0 1
    outer loop
      vertex 5.82817 10.099 -26.3
      vertex 21.8282 7.6 -26.3
      vertex 21.8282 10.099 -26.3
    endloop
  endfacet
  facet normal 0 0 1
    outer loop
      vertex 21.8282 7.6 -26.3
      vertex 5.82817 10.099 -26.3
      vertex 5.82817 7.6 -26.3
    endloop
  endfacet
  facet normal 0 -1 0
    outer loop
      vertex 5.82817 10.099 -26.3
      vertex 21.8282 10.099 -23.8
      vertex 5.82817 10.099 -23.8
    endloop
  endfacet
  facet normal 0 -1 -0
    outer loop
      vertex 21.8282 10.099 -23.8
      vertex 5.82817 10.099 -26.3
      vertex 21.8282 10.099 -26.3
    endloop
  endfacet
  facet normal 0 0.707107 -0.707107
    outer loop
      vertex 21.8282 9.35 -36.8
      vertex 5.82817 12.7 -33.45
      vertex 21.8282 12.7 -33.45
    endloop
  endfacet
  facet normal 0 0.707107 -0.707107
    outer loop
      vertex 5.82817 12.7 -33.45
      vertex 21.8282 9.35 -36.8
      vertex 5.82817 9.35 -36.8
    endloop
  endfacet
  facet normal -0.939693 -0.34202 0
    outer loop
      vertex 19.3966 8.92104 -15.801
      vertex 18.3709 11.7393 -10
      vertex 18.3709 11.7393 -15.801
    endloop
  endfacet
  facet normal -0.939693 -0.34202 0
    outer loop
      vertex 18.3709 11.7393 -10
      vertex 19.3966 8.92104 -15.801
      vertex 19.3966 8.92104 -10
    endloop
  endfacet
  facet normal 0.939693 0.34202 0
    outer loop
      vertex 10 5.5 -10
      vertex 8.97394 8.31908 -15.801
      vertex 8.97394 8.31908 -10
    endloop
  endfacet
  facet normal 0.939693 0.34202 0
    outer loop
      vertex 8.97394 8.31908 -15.801
      vertex 10 5.5 -10
      vertex 10 5.5 -15.801
    endloop
  endfacet
  facet normal 0 0 1
    outer loop
      vertex 19.3966 8.92104 -15.801
      vertex 21.8282 3.41437 -15.801
      vertex 21.8282 8.49229 -15.801
    endloop
  endfacet
  facet normal 0 0 1
    outer loop
      vertex 19.3966 8.92104 -15.801
      vertex 10 5.5 -15.801
      vertex 21.8282 3.41437 -15.801
    endloop
  endfacet
  facet normal 0 0 1
    outer loop
      vertex 18.3709 11.7393 -15.801
      vertex 10 5.5 -15.801
      vertex 19.3966 8.92104 -15.801
    endloop
  endfacet
  facet normal 0 -0 1
    outer loop
      vertex 10 5.5 -15.801
      vertex 18.3709 11.7393 -15.801
      vertex 8.97394 8.31908 -15.801
    endloop
  endfacet
  facet normal 0.34202 -0.939693 0
    outer loop
      vertex 8.97394 8.31908 -15.801
      vertex 18.3709 11.7393 -10
      vertex 8.97394 8.31908 -10
    endloop
  endfacet
  facet normal 0.34202 -0.939693 0
    outer loop
      vertex 18.3709 11.7393 -10
      vertex 8.97394 8.31908 -15.801
      vertex 18.3709 11.7393 -15.801
    endloop
  endfacet
  facet normal 0.173648 0.984808 0
    outer loop
      vertex 21.8282 3.41437 -15.8
      vertex 28.0702 2.31374 -10
      vertex 28.0702 2.31374 -15.8
    endloop
  endfacet
  facet normal 0.173648 0.984808 3.63398e-08
    outer loop
      vertex 28.0702 2.31374 -10
      vertex 21.8282 3.41437 -15.8
      vertex 10 5.5 -10
    endloop
  endfacet
  facet normal 0.173648 0.984808 0
    outer loop
      vertex 10 5.5 -15.801
      vertex 21.8282 3.41437 -15.8
      vertex 21.8282 3.41437 -15.801
    endloop
  endfacet
  facet normal 0.173648 0.984808 0
    outer loop
      vertex 21.8282 3.41437 -15.8
      vertex 10 5.5 -15.801
      vertex 10 5.5 -10
    endloop
  endfacet
  facet normal -0.173648 -0.984808 2.01554e-08
    outer loop
      vertex 19.3966 8.92104 -10
      vertex 21.8282 8.49229 -15.8
      vertex 28.0702 7.39166 -10
    endloop
  endfacet
  facet normal -0.173648 -0.984808 0
    outer loop
      vertex 19.3966 8.92104 -15.801
      vertex 21.8282 8.49229 -15.8
      vertex 19.3966 8.92104 -10
    endloop
  endfacet
  facet normal -0.173648 -0.984808 -0
    outer loop
      vertex 21.8282 8.49229 -15.8
      vertex 19.3966 8.92104 -15.801
      vertex 21.8282 8.49229 -15.801
    endloop
  endfacet
  facet normal -0.173648 -0.984808 -0
    outer loop
      vertex 28.0702 7.39166 -10
      vertex 21.8282 8.49229 -15.8
      vertex 28.0702 7.39166 -15.8
    endloop
  endfacet
  facet normal -1 0 0
    outer loop
      vertex 28.0702 2.31374 -15.8
      vertex 28.0702 7.39166 -10
      vertex 28.0702 7.39166 -15.8
    endloop
  endfacet
  facet normal -1 -0 0
    outer loop
      vertex 28.0702 7.39166 -10
      vertex 28.0702 2.31374 -15.8
      vertex 28.0702 2.31374 -10
    endloop
  endfacet
  facet normal 1 -0 0
    outer loop
      vertex 30.0702 1.96109 -10
      vertex 30.0702 7.039 -15.8
      vertex 30.0702 7.039 -10
    endloop
  endfacet
  facet normal 1 0 0
    outer loop
      vertex 30.0702 7.039 -15.8
      vertex 30.0702 1.96109 -10
      vertex 30.0702 1.96109 -15.8
    endloop
  endfacet
endsolid OpenSCAD_Model
